<?xml version="1.0" encoding="UTF-8" standalone="no"?>
<!-- Created with Inkscape (http://www.inkscape.org/) -->

<svg
   xmlns:dc="http://purl.org/dc/elements/1.1/"
   xmlns:cc="http://creativecommons.org/ns#"
   xmlns:rdf="http://www.w3.org/1999/02/22-rdf-syntax-ns#"
   xmlns:svg="http://www.w3.org/2000/svg"
   xmlns="http://www.w3.org/2000/svg"
   xmlns:sodipodi="http://sodipodi.sourceforge.net/DTD/sodipodi-0.dtd"
   xmlns:inkscape="http://www.inkscape.org/namespaces/inkscape"
   width="70.555557mm"
   height="70.555557mm"
   viewBox="0 0 250.00001 250"
   id="svg2"
   version="1.1"
   inkscape:version="0.91 r13725"
   sodipodi:docname="bologo_yellow.svg">
  <defs
     id="defs4" />
  <sodipodi:namedview
     id="base"
     pagecolor="#ffffff"
     bordercolor="#666666"
     borderopacity="1.0"
     inkscape:pageopacity="0.0"
     inkscape:pageshadow="2"
     inkscape:zoom="4.7646131"
     inkscape:cx="175.4122"
     inkscape:cy="197.00181"
     inkscape:document-units="px"
     inkscape:current-layer="layer1"
     showgrid="true"
     inkscape:window-width="1920"
     inkscape:window-height="1017"
     inkscape:window-x="-8"
     inkscape:window-y="-8"
     inkscape:window-maximized="1"
     fit-margin-top="0"
     fit-margin-left="0"
     fit-margin-right="0"
     fit-margin-bottom="0">
    <inkscape:grid
       type="xygrid"
       id="grid4149"
       spacingx="10"
       spacingy="10" />
  </sodipodi:namedview>
  <metadata
     id="metadata7">
    <rdf:RDF>
      <cc:Work
         rdf:about="">
        <dc:format>image/svg+xml</dc:format>
        <dc:type
           rdf:resource="http://purl.org/dc/dcmitype/StillImage" />
        <dc:title></dc:title>
      </cc:Work>
    </rdf:RDF>
  </metadata>
  <g
     inkscape:label="Layer 1"
     inkscape:groupmode="layer"
     id="layer1"
     transform="translate(-191.8952,-187.81339)">
    <path
       style="fill:#ffffff;fill-rule:evenodd;stroke:none;stroke-width:1px;stroke-linecap:butt;stroke-linejoin:miter;stroke-opacity:1;fill-opacity:1"
       d="m 441.89519,187.81338 -120,0 10,10 30,0 50,40 20,40 10,30 -10,40 -20,40 -90,50 120,0 z"
       id="path4151"
       inkscape:connector-curvature="0" />
    <path
       style="fill:#fbc525;fill-opacity:1"
       d="m 306.57959,437.50283 c -30.6778,-2.6878 -58.76835,-16.05078 -79.7765,-37.95056 -19.17246,-19.98616 -30.58699,-43.86068 -34.27996,-71.69958 -0.48352,-3.64492 -0.62793,-7.09849 -0.62793,-15.01677 0,-11.01993 0.37222,-15.25647 2.12245,-24.1574 9.47137,-48.16759 46.96326,-86.77158 94.95647,-97.77315 17.98465,-4.12264 37.85752,-4.12264 55.84217,0 23.63104,5.41698 45.43304,17.76582 62.17104,35.21421 19.172,19.9857 30.58706,43.86131 34.27995,71.69958 0.48352,3.64492 0.62792,7.09849 0.62792,15.01676 0,11.01993 -0.37221,15.25648 -2.12244,24.1574 -7.06805,35.94528 -29.93727,67.25504 -62.23811,85.20887 -15.8315,8.79965 -32.28017,13.74398 -51.02319,15.33711 -4.48237,0.381 -15.39486,0.36103 -19.93187,-0.0365 z M 268.75614,370.3822 c 0.16327,0.0508 2.39718,3.90358 4.96425,8.56171 l 4.66742,8.46933 0.66325,-1.46062 c 0.36481,-0.80334 3.47023,-8.10799 6.90096,-16.23255 3.43073,-8.12455 6.33898,-14.77192 6.46277,-14.77192 0.12381,0 2.68398,5.54407 5.68928,12.32016 l 5.4642,12.32015 4.77855,-9.13725 c 2.6282,-5.02549 5.46029,-10.49611 6.29351,-12.15693 0.83322,-1.66082 1.6421,-3.0179 1.7975,-3.01574 0.1554,0.002 3.48699,6.94334 7.40355,15.42483 3.91655,8.48149 7.2344,15.53618 7.37299,15.6771 0.13857,0.1409 3.60602,-3.75203 7.70544,-8.65096 4.09941,-4.89895 7.64385,-9.10166 7.87652,-9.33936 0.34028,-0.34767 1.85021,1.4228 7.71908,9.05106 4.01282,5.21578 7.40721,9.37665 7.54308,9.24637 0.13588,-0.13028 2.64044,-5.56211 5.56568,-12.07074 2.92526,-6.50862 5.4188,-11.83386 5.54123,-11.83386 0.12242,0 2.80044,5.39869 5.95115,11.99709 3.1507,6.5984 5.82987,12.10777 5.95371,12.24304 0.12382,0.13527 2.84057,-5.07979 6.0372,-11.58903 3.19663,-6.50923 5.98642,-11.83497 6.19951,-11.83497 0.2131,0 3.09783,3.85003 6.41053,8.55563 l 6.02307,8.55562 2.31286,-3.3324 c 16.10797,-23.20867 22.92415,-53.07269 18.64284,-81.68073 -3.13332,-20.93714 -12.48056,-41.31745 -26.42407,-57.61393 -7.15013,-8.35672 -16.95463,-16.76284 -26.53232,-22.74808 -37.18167,-23.23542 -84.50768,-23.23542 -121.68935,0 -9.5979,5.99788 -19.26879,14.29401 -26.48125,22.71681 -7.52757,8.79081 -15.07916,21.12982 -19.29581,31.52866 -14.609,36.02777 -10.04719,77.07242 12.07529,108.64707 l 3.18968,4.55252 1.92547,-3.22478 c 1.05902,-1.77363 4.24554,-7.19117 7.08118,-12.03897 2.83563,-4.84781 5.26103,-8.92309 5.38976,-9.0562 0.12871,-0.1331 4.2272,6.40408 9.10773,14.52709 4.88053,8.123 9.03666,14.96707 9.23584,15.20902 0.27259,0.33112 1.57644,-1.82898 5.27153,-8.73334 2.70015,-5.0453 5.04294,-9.1317 5.20619,-9.0809 z m 29.9556,-25.55404 0,-11.75225 2.27294,0 2.27293,0 0,1.00656 c 0,0.55361 0.11802,0.95055 0.26226,0.88208 4.26884,-2.02601 4.34905,-2.04617 8.13011,-2.04392 4.16398,0.002 5.66931,0.33743 8.3598,1.86009 2.66783,1.50984 3.98191,3.73117 3.98191,6.73103 0,3.59628 -1.8307,6.02393 -5.87259,7.78744 -1.94733,0.84964 -2.4122,0.91541 -6.46912,0.91541 -3.84,0 -4.55956,-0.0892 -5.92286,-0.73451 -0.85351,-0.40398 -1.67964,-0.73452 -1.83583,-0.73452 -0.1562,0 -0.284,1.76284 -0.284,3.91742 l 0,3.91742 -2.44777,0 -2.44778,0 0,-11.75225 z m 15.07746,2.93283 c 3.11486,-0.80774 5.2041,-3.29574 5.2041,-6.19735 0,-4.03309 -3.82231,-6.88745 -8.61001,-6.42963 -4.77329,0.45644 -7.63926,3.70777 -6.96972,7.90687 0.58469,3.66706 5.61384,5.95493 10.37563,4.72011 z m -47.24821,2.10551 c -5.22503,-1.05614 -9.1577,-3.35012 -11.18983,-6.52722 -1.15833,-1.81098 -1.22372,-2.07151 -1.22067,-4.86422 0.002,-2.55761 0.12675,-3.17 0.93033,-4.59613 1.79835,-3.19156 5.30281,-5.46773 10.37723,-6.74006 3.55027,-0.89018 11.30437,-0.96894 14.88025,-0.15115 5.12028,1.17099 8.98341,3.57971 10.88706,6.7883 0.93434,1.57481 1.03726,2.03979 1.03726,4.68634 0,2.64694 -0.1028,3.11139 -1.03791,4.68745 -2.78276,4.69032 -9.29674,7.25852 -18.26729,7.20207 -2.26792,-0.0143 -5.14632,-0.23269 -6.39643,-0.48538 z m 11.70212,-2.6007 c 6.78693,-1.65033 9.91498,-6.14 8.15418,-11.70363 -0.62011,-1.95941 -3.44737,-4.48935 -6.02182,-5.38859 -7.28006,-2.54286 -16.83355,-0.72472 -19.63412,3.73661 -1.37727,2.194 -1.6174,5.97791 -0.51435,8.10512 1.27515,2.45912 3.99833,4.29071 7.80037,5.2465 2.47112,0.62121 7.66911,0.62324 10.21574,0.004 z m 58.36975,2.65144 c -2.5527,-0.57837 -5.39887,-2.17447 -6.51572,-3.65392 -1.86931,-2.47622 -1.89813,-6.44974 -0.0655,-9.03498 1.06961,-1.5089 3.49118,-3.0015 6.09613,-3.7575 2.98982,-0.86769 10.00991,-0.73926 12.68728,0.23209 4.07853,1.47972 6.54523,4.15396 6.54523,7.09593 l 0,1.41769 -10.64465,0 c -7.16584,0 -10.72005,0.11385 -10.8753,0.34838 -0.12685,0.1916 0.14836,1.03589 0.61157,1.8762 0.68027,1.23407 1.23696,1.71631 2.8953,2.50808 1.83744,0.87727 2.38628,0.98 5.22497,0.9779 3.53284,-0.002 5.40109,-0.64504 6.83911,-2.35174 0.71582,-0.84957 0.89966,-0.89695 3.09278,-0.79718 1.28244,0.0583 2.45118,0.21232 2.59719,0.34218 0.45545,0.40509 -2.18741,2.96091 -3.88894,3.76088 -0.89198,0.41936 -2.45564,0.92764 -3.47482,1.12953 -2.41026,0.47743 -8.84329,0.42334 -11.12457,-0.0936 z m 13.50083,-10.39392 c -0.002,-0.66719 -1.30312,-2.45726 -2.17227,-2.98892 -0.44454,-0.27192 -1.82892,-0.73888 -3.07641,-1.03769 -1.9184,-0.45951 -2.61339,-0.48403 -4.50674,-0.15902 -1.2312,0.21136 -2.64742,0.58378 -3.14714,0.82759 -1.18572,0.57853 -2.69079,2.10405 -2.99094,3.03159 l -0.23769,0.73452 8.06625,0 c 6.22058,0 8.06596,-0.0934 8.06494,-0.40807 z m 11.54081,2.04032 0,-8.48773 2.27294,0 2.27293,0 0,1.16481 0,1.16481 1.02595,-0.682 c 4.55081,-3.02519 14.53427,-2.4085 17.29949,1.06861 0.67703,0.85134 0.74077,1.42353 0.84544,7.58999 l 0.11318,6.66925 -2.4402,0 -2.4402,0 -0.12078,-5.97276 c -0.10012,-4.95283 -0.22278,-6.118 -0.71818,-6.82329 -1.95399,-2.78189 -10.32499,-2.36112 -12.42313,0.62444 -0.51611,0.73443 -0.63608,1.80173 -0.73336,6.52483 l -0.11633,5.64678 -2.41889,0 -2.41889,0 0,-8.48774 z m -57.60796,-14.68208 c -0.62387,-0.13826 -1.36862,-0.43294 -1.655,-0.65482 -0.64814,-0.50218 -1.2275,-2.38869 -1.23008,-4.00534 l -0.002,-1.22419 -9.00431,-0.0314 c -4.95237,-0.0173 -13.39306,-0.0818 -18.75705,-0.14343 -9.61033,-0.1104 -9.79339,-0.1 -12.53559,0.70867 -4.69739,1.38532 -10.09203,2.39816 -12.7899,2.40127 -2.76578,0.003 -6.00942,-0.98622 -6.00942,-1.83307 0,-0.48736 3.58736,-3.21716 5.37001,-4.0863 0.60451,-0.29473 2.12193,-0.98377 3.37204,-1.53121 2.20151,-0.96405 3.56134,-1.96044 9.98794,-7.31839 2.89991,-2.4177 3.1098,-2.52999 4.72869,-2.52999 1.39725,0 1.91127,0.17801 2.93353,1.01595 0.68169,0.55876 1.50787,1.44018 1.83597,1.95871 0.59143,0.93469 0.62506,0.94274 3.93054,0.94142 5.0275,-0.002 12.48601,-0.60024 17.07269,-1.36938 2.25231,-0.37768 5.38327,-0.74848 6.9577,-0.82398 3.31759,-0.15907 3.15884,0.0554 3.3254,-4.49232 l 0.0955,-2.60636 -7.51276,-2.80248 c -8.41016,-3.13724 -19.37113,-7.61816 -22.53901,-9.21413 -1.35813,-0.68422 -2.45825,-1.5475 -3.14714,-2.46961 -1.02878,-1.37709 -1.05857,-1.52199 -1.04029,-5.06 0.0214,-4.14709 0.6878,-6.39367 3.54486,-11.95102 1.41734,-2.75688 1.98895,-3.45744 5.32839,-6.53037 7.30784,-6.72463 16.36406,-11.6536 25.18245,-13.7059 15.20926,-3.53965 30.93462,0.12929 46.60151,10.87277 4.1427,2.84082 4.60064,3.56617 4.62722,7.32916 l 0.0191,2.715 -1.51435,1.32038 c -1.48669,1.29625 -1.55421,1.318 -3.69628,1.19067 -1.81828,-0.10806 -2.86935,-0.45421 -6.30636,-2.07668 l -4.1244,-1.94697 -8.69373,8.32451 c -4.78154,4.57848 -8.68925,8.39796 -8.68379,8.48774 0.006,0.0898 1.85079,0.96374 4.10072,1.94214 6.73013,2.92668 16.88852,7.97447 20.72273,10.2973 10.89112,6.59806 14.47028,11.67274 12.19765,17.29429 -0.54543,1.3492 -1.33591,2.45379 -2.5698,3.59096 -4.09006,3.76948 -9.28722,4.77525 -19.79069,3.82992 -1.82709,-0.16444 -7.50504,-0.32578 -12.61767,-0.35852 l -9.29569,-0.0595 -1.29837,1.96377 c -0.71411,1.08009 -1.64083,2.18772 -2.05936,2.4614 -0.80449,0.52605 -3.1262,0.60833 -5.06167,0.17938 z m 19.49262,-17.10086 c 0,-0.20833 -6.7931,-3.71194 -7.60557,-3.92265 -0.43274,-0.11224 -1.1015,-0.28741 -1.48615,-0.38929 -0.62384,-0.16521 -0.69937,-0.0294 -0.69937,1.25819 l 0,1.44341 4.45845,0.82401 c 4.80368,0.8878 5.33264,0.9658 5.33264,0.78633 z m -10.48266,-34.38787 6.0613,-6.10376 -1.02388,-0.28197 c -1.58493,-0.4365 -7.72641,-8.7e-4 -10.64012,0.75406 -3.90504,1.0123 -6.85348,2.50234 -9.33219,4.71618 -2.13735,1.90895 -2.6774,2.76002 -1.77022,2.78967 0.2404,0.008 2.6401,0.95041 5.33265,2.09457 2.69255,1.14414 4.98906,2.09259 5.10336,2.10763 0.11435,0.015 2.9354,-2.71931 6.2691,-6.07638 z m 57.08637,25.86348 c -7.85087,-2.06924 -13.38391,-8.64031 -13.38391,-15.89482 0,-11.91087 12.86788,-19.89148 24.65258,-15.28946 2.27876,0.88989 3.25839,1.52068 5.28334,3.40205 3.73153,3.46695 5.38197,7.02366 5.38197,11.59818 0,7.20014 -4.62081,13.38014 -11.74258,15.70485 -2.74335,0.8955 -7.72349,1.12966 -10.1914,0.4792 z m -126.33121,-40.71582 0,-11.89923 1.78509,-2.4249 c 5.46054,-7.4177 11.28362,-12.38167 14.52457,-12.38167 1.42177,0 2.57417,1.18062 2.56975,2.63265 -0.005,1.34677 -1.31234,4.07232 -3.01946,6.29064 -0.90533,1.17644 -1.06872,1.55144 -0.59767,1.37179 0.35653,-0.13596 1.29862,-0.32161 2.09352,-0.41253 2.68993,-0.30769 3.53758,1.46007 2.40595,5.01753 -0.82986,2.60881 -3.01201,5.39281 -7.97737,10.1776 -5.45732,5.25883 -7.79742,7.83568 -10.09714,11.1187 l -1.68724,2.40865 0,-11.89923 z m 4.16661,3.47131 c 0.46455,-0.63676 2.77319,-3.05949 5.13031,-5.38382 4.49447,-4.43197 6.43877,-7.23996 6.43877,-9.29901 0,-3.9631 -5.49117,-0.754 -11.65453,6.81103 l -1.28371,1.57565 0,3.72919 c 0,2.05105 0.11802,3.72818 0.26226,3.72695 0.14425,-8.7e-4 0.64235,-0.52322 1.1069,-1.15999 z m -0.0546,-10.69856 c 0.43453,-0.59588 2.52037,-2.82639 4.63517,-4.95669 4.06381,-4.09357 5.58973,-6.3712 5.58973,-8.3434 0,-1.62171 -0.6997,-2.14889 -2.12206,-1.59887 -1.30986,0.50652 -5.6197,4.47958 -7.80988,7.1996 l -1.60757,1.99646 0,3.39539 c 0,1.86748 0.11802,3.3944 0.26226,3.39317 0.14425,-8.7e-4 0.6178,-0.48978 1.05235,-1.08566 z m 145.7267,17.71374 -1.04905,-1.44586 -0.17484,-6.87325 -0.17484,-6.87325 -1.30285,-2.46017 c -1.9789,-3.73676 -5.482,-6.50057 -6.45693,-5.09428 -0.1556,0.22443 -0.36159,2.93812 -0.45775,6.03044 l -0.17484,5.62237 -1.851,-1.54173 -1.851,-1.54174 0.10257,-8.44801 0.10257,-8.44801 1.83583,1.54117 c 1.53246,1.2865 1.83584,1.72499 1.83584,2.6535 0,0.9225 0.12903,1.11233 0.75605,1.11233 2.23657,0 5.45675,3.06259 7.78098,7.40024 2.08471,3.89058 2.33,5.32666 2.22294,13.01416 l -0.0947,6.79797 -1.04904,-1.44588 z m -26.401,-21.81538 c -10.69776,-3.72793 -16.77197,-9.03263 -16.78132,-14.65539 -0.007,-4.00837 2.13895,-5.94474 6.58713,-5.94474 8.09479,0 17.53834,7.73772 18.15186,14.87301 l 0.18714,2.17645 -0.8266,-0.41298 c -0.45461,-0.22715 -1.61843,-0.88553 -2.58624,-1.46307 -4.51082,-2.69182 -16.62506,-7.72618 -16.61775,-6.9059 0.009,1.0982 1.83176,3.8235 3.4824,5.20898 3.57648,3.00195 10.19265,5.33943 11.73363,4.14548 0.44871,-0.34765 0.85085,-0.21344 2.45948,0.82087 2.41386,1.55204 2.5472,1.76457 1.57049,2.50291 -1.19974,0.90697 -4.16539,0.7677 -7.36022,-0.34562 z m 3.65093,-9.5824 c -1.3922,-4.21333 -8.6729,-8.68137 -12.9311,-7.93559 -1.19276,0.2089 -2.60902,1.17023 -2.60902,1.77096 0,0.15553 1.84894,0.96996 4.10876,1.80985 2.25982,0.83987 5.68234,2.31393 7.60559,3.27567 1.92325,0.96174 3.62545,1.76324 3.78265,1.78113 0.15721,0.0178 0.17661,-0.29803 0.0431,-0.70202 z m -100.6877,7.30112 c -1.71724,-0.70462 -2.09809,-1.56333 -2.09809,-4.73065 0,-2.7421 0.0998,-3.18272 1.19295,-5.27055 3.31085,-6.32305 12.84641,-11.22746 19.37081,-9.96299 3.27748,0.6352 5.13787,2.62684 5.13787,5.50032 l 0,1.26434 -2.01067,0.41052 c -4.90922,1.00228 -18.58909,5.70898 -19.17786,6.59834 -0.38596,0.58302 0.21277,1.89734 1.11602,2.44985 2.59411,1.58681 10.74393,-1.04642 13.90326,-4.49219 1.04699,-1.14191 1.46475,-1.3383 3.68797,-1.73378 l 2.50723,-0.446 -0.84251,1.35181 c -1.76316,2.82894 -7.44224,6.16012 -14.04492,8.23829 -2.93283,0.92311 -7.4592,1.34907 -8.74206,0.82269 z m 5.84959,-10.50003 c 1.72947,-0.72701 5.25144,-1.99264 7.82661,-2.81252 2.57516,-0.81987 4.68211,-1.66849 4.68211,-1.88578 0,-0.21731 -0.40611,-0.75123 -0.90246,-1.18652 -1.28692,-1.12859 -4.34326,-1.05237 -7.61299,0.18985 -3.3347,1.26691 -7.56992,5.00095 -7.56992,6.67412 0,0.50336 0.14302,0.46421 3.57665,-0.97915 z m 50.92546,9.31401 c -5.38733,-0.93921 -8.69376,-2.80452 -8.69376,-4.90454 0,-0.80375 0.0105,-0.80618 2.53518,-0.59469 2.20467,0.18467 2.64918,0.33376 3.4094,1.1435 1.25011,1.33153 3.48253,1.94932 7.69301,2.12892 4.09522,0.17468 5.70755,-0.28045 6.54653,-1.84796 0.36305,-0.67833 0.64922,-3.27269 0.35969,-3.26098 -0.048,0.002 -0.85987,0.22229 -1.80397,0.48968 -3.45635,0.97885 -9.80509,0.39482 -13.61168,-1.25217 -2.00777,-0.8687 -4.11362,-2.64213 -5.02841,-4.23464 -0.89073,-1.55064 -0.8079,-4.91772 0.16338,-6.64197 1.76939,-3.14106 5.21728,-4.73855 10.22732,-4.73855 3.42617,0 6.00823,0.67303 8.34901,2.17624 l 1.79177,1.15065 0,-0.98478 c 0,-0.54161 0.11802,-0.98117 0.26226,-0.97678 0.23579,0.008 2.02224,0.35534 4.21637,0.82174 l 0.80698,0.17153 -0.10759,9.04808 c -0.1222,10.27538 -0.19838,10.59618 -2.82485,11.8949 -1.3093,0.64742 -2.0605,0.73969 -6.54933,0.80438 -3.23706,0.0467 -6.03612,-0.0953 -7.74129,-0.39256 z m 9.04538,-9.61264 c 2.72857,-1.15633 3.66239,-4.10982 2.23021,-7.0536 -2.34543,-4.82093 -11.3294,-5.95664 -14.2842,-1.80574 -1.54916,2.17628 -0.87417,5.7748 1.42336,7.58825 2.17749,1.7187 7.94669,2.40851 10.63063,1.27109 z m -35.92261,-4.21441 c 0,-4.66976 0.11802,-8.55588 0.26226,-8.63582 0.14424,-0.08 1.24574,-0.24994 2.44778,-0.37777 l 2.18551,-0.23242 0,0.8536 0,0.85359 1.77068,-1.13711 c 0.97388,-0.6254 2.32648,-1.23444 3.00574,-1.3534 1.49912,-0.26255 5.66955,0.0155 6.05973,0.40418 0.15465,0.15401 -0.10631,0.84289 -0.57993,1.53085 -0.63531,0.92284 -1.0155,1.19158 -1.4499,1.0249 -2.79721,-1.0733 -6.19537,-0.0545 -7.49625,2.24738 -0.68106,1.20517 -0.77902,1.96468 -0.89643,6.95065 l -0.13182,5.59762 -1.97674,0.21628 c -1.08721,0.11896 -2.25212,0.2909 -2.58868,0.38211 -0.57168,0.15491 -0.61195,-0.39294 -0.61195,-8.32464 z"
       id="path4147"
       inkscape:connector-curvature="0" />
  </g>
</svg>
