<?xml version="1.0" encoding="UTF-8" standalone="no"?>
<!-- Created with Inkscape (http://www.inkscape.org/) -->

<svg
   xmlns:dc="http://purl.org/dc/elements/1.1/"
   xmlns:cc="http://creativecommons.org/ns#"
   xmlns:rdf="http://www.w3.org/1999/02/22-rdf-syntax-ns#"
   xmlns:svg="http://www.w3.org/2000/svg"
   xmlns="http://www.w3.org/2000/svg"
   xmlns:sodipodi="http://sodipodi.sourceforge.net/DTD/sodipodi-0.dtd"
   xmlns:inkscape="http://www.inkscape.org/namespaces/inkscape"
   width="84.666664mm"
   height="84.666664mm"
   viewBox="0 0 299.99999 299.99999"
   id="svg2"
   version="1.1"
   inkscape:version="0.91 r13725"
   sodipodi:docname="diver.svg">
  <defs
     id="defs4" />
  <sodipodi:namedview
     id="base"
     pagecolor="#c8c8c8"
     bordercolor="#666666"
     borderopacity="1.0"
     inkscape:pageopacity="0"
     inkscape:pageshadow="2"
     inkscape:zoom="1.9987552"
     inkscape:cx="217.76626"
     inkscape:cy="132.46207"
     inkscape:document-units="px"
     inkscape:current-layer="layer1"
     showgrid="true"
     fit-margin-top="0"
     fit-margin-left="0"
     fit-margin-right="0"
     fit-margin-bottom="0"
     inkscape:window-width="1920"
     inkscape:window-height="1017"
     inkscape:window-x="-8"
     inkscape:window-y="-8"
     inkscape:window-maximized="1">
    <inkscape:grid
       type="xygrid"
       id="grid4158"
       spacingx="9.9999997"
       spacingy="9.9999997" />
  </sodipodi:namedview>
  <metadata
     id="metadata7">
    <rdf:RDF>
      <cc:Work
         rdf:about="">
        <dc:format>image/svg+xml</dc:format>
        <dc:type
           rdf:resource="http://purl.org/dc/dcmitype/StillImage" />
        <dc:title></dc:title>
      </cc:Work>
    </rdf:RDF>
  </metadata>
  <g
     inkscape:label="Layer 1"
     inkscape:groupmode="layer"
     id="layer1"
     transform="translate(-222.04724,-332.36221)">
    <path
       style="fill:#ffffff;fill-rule:evenodd;stroke:none;stroke-width:1px;stroke-linecap:butt;stroke-linejoin:miter;stroke-opacity:1;fill-opacity:1"
       d="m 372.04724,332.36221 150,150 -60,110 -30,20 -60,20 150,0 0,-300 z"
       id="path4160"
       inkscape:connector-curvature="0" />
    <path
       style="opacity:1;fill:#fbc525;fill-opacity:1;stroke:none;stroke-width:2;stroke-miterlimit:4;stroke-dasharray:none"
       d="M 150,0 C 67.157288,0 0,67.157288 0,150 0,232.84271 67.157288,300 150,300 232.84271,300 300,232.84271 300,150 300,108.57864 283.21068,71.078644 256.06602,43.933983 228.92136,16.789322 191.42136,0 150,0 Z M 59.404297,38.009766 c 1.13444,-0.13893 11.805242,1.269619 17.326172,2.287109 1.71598,0.31626 5.168988,1.581819 6.923828,2.537109 0.22827,0.12426 1.436114,0.732926 2.683594,1.353516 2.29073,1.13957 5.677586,3.25733 5.847656,3.65625 0.0508,0.11898 0.21936,0.216797 0.375,0.216797 0.15564,0 0.753658,0.373548 1.330078,0.830078 0.57642,0.45654 1.187139,0.830078 1.355469,0.830078 0.16833,0 0.304687,0.09967 0.304687,0.222656 0,0.12298 0.501905,0.58942 1.115235,1.03711 0.61333,0.44768 1.410424,1.06478 1.771484,1.36914 2.23611,1.88494 4.0616,3.501925 5.38281,4.771485 0.83143,0.79893 1.60733,1.453125 1.72266,1.453125 0.11532,0 0.28816,0.248374 0.38476,0.552734 0.0966,0.30435 0.40757,0.554688 0.69141,0.554688 0.28385,0 0.58742,0.22191 0.67383,0.49414 0.0864,0.27225 0.87307,0.920566 1.74805,1.441407 0.87495,0.52084 1.96339,1.218248 2.41992,1.548828 0.45654,0.3306 1.12238,0.689838 1.48047,0.798828 0.35809,0.10898 1.06284,0.477959 1.56445,0.818359 0.50161,0.3404 1.32798,0.787741 1.83789,0.994141 0.5099,0.2064 0.99032,0.444557 1.06641,0.529297 0.0761,0.0847 0.88575,0.524375 1.79882,0.978515 0.91307,0.45415 1.86238,0.98876 2.10938,1.1875 0.24702,0.19873 1.0735,0.698948 1.83789,1.111328 0.76438,0.41237 2.09083,1.216 2.94727,1.78711 0.85643,0.57111 2.17699,1.363125 2.93554,1.759765 0.75854,0.39663 1.44016,0.81857 1.51367,0.9375 0.0735,0.11892 0.78765,0.55464 1.58789,0.96875 0.80023,0.4141 1.65233,0.927432 1.89258,1.138672 0.24026,0.21123 0.51486,0.382813 0.60938,0.382813 0.52634,0 3.54297,2.275813 6.00976,4.533203 0.68481,0.62666 1.86593,1.613929 2.625,2.193359 0.75907,0.57944 2.09668,1.730384 2.97266,2.558594 0.87599,0.82823 1.64681,1.505859 1.71289,1.505859 0.0661,0 0.67325,0.529022 1.34961,1.175782 2.03311,1.9441 5.25817,4.830686 6.14258,5.498047 0.45653,0.34449 1.3346,1.069828 1.95312,1.611328 0.61851,0.5415 1.42025,1.170167 1.78125,1.398437 0.36101,0.22827 0.91452,0.668696 1.22852,0.978516 0.314,0.30982 1.12638,0.994324 1.80664,1.521484 0.68025,0.527157 1.87921,1.601157 2.66406,2.384767 0.78485,0.7836 1.68856,1.56351 2.00781,1.73437 0.5119,0.27396 0.60189,0.22263 0.76758,-0.4375 0.22711,-0.90492 0.5929,-1.618 1.41797,-2.76953 0.3424,-0.477878 0.62109,-1.023891 0.62109,-1.214841 0,-0.19095 0.49872,-1.008213 1.10743,-1.814453 0.60871,-0.80623 1.10742,-1.575045 1.10742,-1.708985 0,-0.13396 0.52902,-0.755842 1.17578,-1.382812 0.64676,-0.62697 1.6745,-1.782446 2.2832,-2.566407 0.6578,-0.847179 1.63089,-1.691951 2.40039,-2.082031 0.71208,-0.36098 1.37291,-0.78243 1.46875,-0.9375 0.0958,-0.15508 0.401,-0.28125 0.67774,-0.28125 0.27674,0 0.65165,-0.18069 0.83398,-0.40039 0.36084,-0.43477 2.5659,-1.187978 5.82422,-1.992188 2.95612,-0.72962 12.58862,-0.643049 16.04688,0.144531 4.76789,1.08584 7.24163,2.050804 9.93164,3.876954 0.4733,0.3213 1.22931,0.832368 1.67968,1.136718 0.45036,0.30437 0.94712,0.554688 1.10547,0.554688 0.15835,0 0.28907,0.12336 0.28907,0.27539 0,0.15203 0.75221,1.0546 1.67187,2.00586 1.47333,1.52402 2.63519,3.445499 3.55664,5.880859 0.11516,0.304357 0.4699,1.114027 0.78906,1.798827 1.52087,3.26326 2.13353,8.63825 1.62305,14.24805 -0.3522,3.87031 -1.25695,8.04447 -2.10937,9.73437 -0.75392,1.49466 -0.77466,1.61965 -0.33204,2.0293 0.49997,0.46273 4.08563,2.20898 4.53516,2.20898 0.14596,0 0.4308,0.15549 0.63281,0.34571 0.20201,0.19023 0.83077,0.72119 1.39844,1.17773 0.56769,0.45654 1.52928,1.49714 2.13672,2.31446 0.60744,0.81731 1.30869,1.69506 1.55664,1.94921 0.24794,0.25415 0.76019,1.10808 1.14063,1.89844 0.38044,0.79035 0.78626,1.43904 0.90039,1.44141 0.11413,0.003 0.20703,0.16872 0.20703,0.36914 0,0.76863 3.34175,6.56561 3.91015,6.7832 0.13251,0.0507 0.24024,0.26879 0.24024,0.48438 0,0.21559 0.12516,0.39257 0.27734,0.39257 0.15217,0 0.27539,0.13194 0.27539,0.29493 0,0.37715 3.09155,4.4082 3.38086,4.4082 0.11892,0 0.2168,0.15588 0.2168,0.34766 0,0.19178 0.31096,0.68541 0.6914,1.0957 0.38045,0.4103 0.69141,0.85981 0.69141,1 0,0.14018 0.19591,0.41602 0.43359,0.61328 1.00997,0.8382 3.55753,5.49969 5.73829,10.5 0.90931,2.08493 2.09646,4.74535 3.76757,8.43945 1.1951,2.64179 1.40251,3.11707 1.93164,4.42774 0.30719,0.7609 0.76164,2.19248 1.00977,3.18164 0.24813,0.98916 0.54607,1.92204 0.66406,2.07422 0.82859,1.06878 1.21655,10.79972 0.64453,16.1875 -0.1858,1.75005 -0.4019,4.36485 -0.48046,5.81054 -0.27009,4.96895 -1.41812,11.41543 -2.48829,13.97266 -0.19105,0.45654 -0.50555,1.51459 -0.69921,2.35156 -0.19368,0.83698 -0.42347,1.70728 -0.50977,1.93555 -0.0863,0.22826 -0.17581,0.54118 -0.19922,0.69336 -0.0755,0.49071 -0.90894,2.47533 -2.20508,5.25586 -0.35469,0.7609 -0.7314,1.69572 -0.83789,2.07617 -0.1065,0.38045 -0.35224,0.87721 -0.54687,1.10547 -0.19462,0.22827 -0.78088,1.22568 -1.30274,2.21484 -1.22394,2.31998 -2.06086,3.6248 -3.63867,5.67188 -0.70375,0.91307 -1.46894,1.90854 -1.69922,2.21289 -2.48516,3.28432 -4.38883,5.34766 -7.20117,7.80664 -2.69823,2.3592 -3.29927,2.84534 -3.51758,2.8457 -0.11413,1.9e-4 -0.20703,0.19078 -0.20703,0.42383 0,0.23304 -0.21807,0.50005 -0.48437,0.5918 -0.68071,0.23449 -5.85047,5.62951 -7.30079,7.61914 -1.77044,2.42885 -10.61855,11.27407 -12.58007,12.57617 -1.79679,1.19277 -2.29536,1.3685 -5.02539,1.76172 -0.95419,0.13744 -2.66619,0.44102 -3.80274,0.67578 -2.00283,0.4137 -10.09359,0.90721 -10.37305,0.63281 -0.0761,-0.0747 -1.31993,-0.21225 -2.76562,-0.30664 -1.4457,-0.0944 -3.12762,-0.35449 -3.73633,-0.57812 -0.60871,-0.22363 -1.32034,-0.41129 -1.58203,-0.41797 -0.26168,-0.007 -0.91905,-0.26205 -1.46094,-0.56641 -0.54187,-0.30436 -1.13236,-0.55273 -1.31054,-0.55273 -0.61972,0 -6.026,-3.17576 -6.16797,-3.62305 -0.0786,-0.24763 -0.60865,-0.89171 -1.17578,-1.43164 -0.56713,-0.53992 -1.27963,-1.30721 -1.58399,-1.70313 -0.30436,-0.39591 -0.89596,-1.10513 -1.31445,-1.57617 -0.41848,-0.47102 -0.75977,-0.93628 -0.75977,-1.03515 0,-0.0989 -0.49871,-0.70924 -1.10742,-1.35547 -0.60871,-0.64625 -1.10742,-1.34537 -1.10742,-1.55469 0,-0.20932 -0.18613,-0.53545 -0.41406,-0.72461 C 167.16277,262.10727 165,258.93865 165,258.64258 c 0,-0.10527 -0.31097,-0.61324 -0.69141,-1.12891 -0.38045,-0.51566 -0.6914,-1.12289 -0.6914,-1.34765 0,-0.22477 -0.16656,-0.60546 -0.36914,-0.84571 -0.2026,-0.24026 -1.01584,-1.92973 -1.8086,-3.75586 -0.79276,-1.82615 -1.62362,-3.67269 -1.8457,-4.10351 -0.22207,-0.43082 -0.4043,-0.97687 -0.4043,-1.21289 0,-0.23602 -0.23709,-0.81653 -0.52734,-1.29102 -0.29024,-0.4745 -0.84381,-1.81166 -1.23047,-2.9707 -0.38665,-1.15905 -0.97781,-2.7158 -1.31445,-3.45899 -0.33662,-0.74318 -0.86205,-1.91089 -1.16602,-2.5957 -0.30399,-0.68479 -0.68088,-1.49448 -0.83789,-1.79883 -0.15701,-0.30436 -0.51075,-1.01323 -0.78516,-1.57422 -0.27438,-0.561 -0.62404,-1.09666 -0.77734,-1.1914 -0.1533,-0.0947 -0.27734,-0.39904 -0.27734,-0.67578 0,-0.27674 -0.1859,-0.65602 -0.41211,-0.84375 -0.22621,-0.18774 -0.86867,-1.23004 -1.42774,-2.31641 -2.69385,-5.23456 -3.139,-6.15192 -3.14062,-6.47656 -8.2e-4,-0.19229 -0.1143,-0.56583 -0.25391,-0.83008 -0.9459,-1.79029 -1.68359,-3.4296 -1.68359,-3.74414 0,-0.20321 -0.37354,-1.09951 -0.83008,-1.99219 -0.45654,-0.89268 -0.83008,-1.70947 -0.83008,-1.81445 0,-0.10498 -0.27174,-0.79884 -0.60351,-1.54102 -0.62524,-1.39868 -1.67586,-4.26909 -2.875,-7.85156 -0.74454,-2.22434 -0.7517,-2.24235 -2.03516,-5.01953 -0.46718,-1.01092 -0.84961,-1.98689 -0.84961,-2.16992 0,-0.18301 -0.2341,-0.66442 -0.51953,-1.06836 -0.28544,-0.40394 -0.60418,-1.12922 -0.70898,-1.61328 -0.10479,-0.48406 -0.3694,-1.02961 -0.5879,-1.21094 -0.21847,-0.18132 -0.39843,-0.48192 -0.39843,-0.66797 0,-0.18605 -0.24138,-0.5566 -0.53711,-0.82422 -0.29573,-0.26764 -0.62224,-0.8679 -0.72461,-1.33398 -0.10237,-0.46608 -0.30135,-0.98159 -0.44336,-1.14649 -0.14199,-0.16491 -0.88004,-1.16586 -1.64063,-2.22265 -0.76059,-1.05679 -1.90215,-2.36322 -2.53515,-2.9043 -0.633,-0.54109 -1.52539,-1.3276 -1.98438,-1.74609 -0.45899,-0.41849 -0.91412,-0.75977 -1.01172,-0.75977 -0.35349,0 -6.54416,-6.04884 -9.05273,-8.8457 -1.91835,-2.1388 -2.63473,-2.86912 -6.25977,-6.37305 -1.18079,-1.14133 -2.72686,-2.75323 -3.43554,-3.58398 -0.70869,-0.83073 -1.54416,-1.76558 -1.85742,-2.07618 -1.33733,-1.32597 -4.02458,-4.84115 -5.29493,-6.92773 -0.591896,-0.97224 -2.22238,-4.4028 -2.43359,-5.11914 -0.11218,-0.38045 -0.419271,-1.12753 -0.681641,-1.66016 -1.02169,-2.07416 -1.368595,-2.94086 -1.546875,-3.87304 -0.10186,-0.53262 -0.349601,-1.34229 -0.550781,-1.79883 -0.20118,-0.45653 -0.62238,-1.85319 -0.9375,-3.10352 -0.56875,-2.25679 -1.357769,-4.26786 -2.662109,-6.78711 -0.37367,-0.72174 -0.679688,-1.56356 -0.679688,-1.87109 0,-0.30754 -0.121714,-0.77481 -0.271484,-1.03906 -0.14978,-0.26424 -1.029465,-2.2856 -1.953125,-4.49219 -0.92365,-2.20659 -1.861848,-4.44784 -2.085938,-4.98047 -0.22409,-0.53262 -0.590193,-1.32114 -0.814453,-1.75195 -0.22427,-0.43083 -0.408203,-0.89951 -0.408203,-1.04102 0,-0.14151 -0.230089,-0.78458 -0.511719,-1.42969 -0.6815,-1.56103 -2.17328,-5.43766 -2.40039,-6.24023 -0.25952,-0.91704 -2.197492,-4.21679 -2.951172,-5.02344 -0.35115,-0.37582 -0.839605,-1.12699 -1.083984,-1.66992 -0.86505,-1.92181 -3.3156,-4.201087 -5.88086,-5.466797 -1.30751,-0.64513 -2.515054,-1.171875 -2.683594,-1.171875 -0.31095,0 -3.878972,-1.677779 -4.132812,-1.943359 -0.0761,-0.0796 -0.490835,-0.370012 -0.921875,-0.644531 -1.46824,-0.935131 -2.981798,-2.483233 -3.398438,-3.476563 -0.4931,-1.17566 -0.578038,-4.954101 -0.261718,-11.644531 0.45381,-9.59872 -1.139227,-19.138218 -4.410157,-26.423828 -2.27107,-5.05855 -2.667396,-7.405477 -1.597656,-9.466797 0.66421,-1.27993 2.555229,-2.441563 4.324219,-2.658203 z m 27.324219,26.246093 c -0.214711,-0.0035 -0.07623,0.220379 0.466796,1.058594 0.408271,0.63022 0.819343,1.207123 0.914063,1.283203 0.0947,0.0761 0.582484,0.94834 1.083984,1.9375 0.5015,0.98916 1.369688,2.420751 1.929688,3.181641 0.56,0.76089 1.241009,1.881514 1.511719,2.490234 0.27071,0.60871 1.038321,2.228057 1.707031,3.597657 0.66871,1.369599 1.21467,2.621563 1.212891,2.783203 -0.002,0.16164 0.246431,0.809513 0.550781,1.439453 0.30437,0.62995 0.552734,1.289947 0.552734,1.466797 0,0.17685 0.230859,0.774775 0.511719,1.328125 0.28085,0.55334 0.995964,1.971 1.589844,3.15039 0.59389,1.17938 1.172689,2.144532 1.287114,2.144532 0.11441,0 0.20898,0.167133 0.20898,0.371093 0,0.32255 1.20371,2.846448 1.93359,4.054688 0.13789,0.22826 0.88568,1.722442 1.66211,3.320312 0.77643,1.59787 1.59185,3.043939 1.8125,3.212889 0.22066,0.16896 0.40235,0.46044 0.40235,0.64844 0,0.188 0.22822,0.67223 0.50781,1.07617 0.2796,0.40393 0.58956,0.92212 0.68945,1.15039 0.19701,0.45025 0.56871,1.06133 1.42969,2.34571 0.30435,0.45402 0.67791,1.04199 0.83008,1.30664 0.51309,0.8923 2.92852,4.35429 3.28906,4.71484 0.19663,0.19664 0.41016,0.4938 0.47266,0.66016 0.13977,0.37202 1.44109,2.04681 2.75586,3.54687 0.54028,0.61642 1.65894,1.99334 2.48632,3.05859 0.82738,1.06525 1.66135,2.10165 1.85352,2.30274 0.19217,0.2011 0.34961,0.47112 0.34961,0.60156 0,0.13044 0.16661,0.4049 0.37109,0.60938 0.38936,0.38937 1.88078,2.62036 2.11914,3.16992 0.12211,0.28151 4.39116,5.52988 5.125,6.30078 0.15557,0.16342 0.74759,0.98139 1.31641,1.81836 2.26113,3.32709 3.50013,4.99839 4.45312,6.0039 0.54864,0.5789 0.9985,1.17596 1,1.32813 0.002,0.15218 0.31506,0.63792 0.69532,1.08008 0.38025,0.44217 0.69289,0.87829 0.69531,0.96875 0.009,0.34636 1.62586,1.9199 4.42187,4.30078 1.59787,1.36063 3.02946,2.60475 3.18165,2.76562 0.15217,0.16087 0.77605,0.63316 1.38476,1.04883 0.60871,0.41566 1.44473,1.03759 1.85938,1.38281 0.41465,0.34524 1.20254,0.93791 1.75,1.31836 0.54746,0.38045 1.26625,0.95023 1.59765,1.26563 0.3314,0.31541 1.47382,1.24139 2.53906,2.05664 1.93453,1.48051 4.84375,4.37636 4.84375,4.82227 0,0.0653 0.71482,1.22103 1.58985,2.57031 0.87502,1.34928 1.71501,2.65359 1.86719,2.89648 1.33126,2.12486 3.65185,5.2941 4.62304,6.31446 1.81371,1.90554 3.07724,2.78546 7.08789,4.9375 3.83232,2.05635 5.42419,3.2535 8.73633,6.57617 2.28131,2.28856 4.8711,5.06986 4.8711,5.23047 0,0.061 0.99546,1.12972 2.21289,2.37695 1.21743,1.24723 2.21289,2.43463 2.21289,2.63867 0,0.20402 0.18775,0.37109 0.41601,0.37109 0.22827,0 0.41406,-0.11696 0.41406,-0.26171 0,-0.50715 -0.83941,-3.48515 -1.36914,-4.85547 -2.21937,-5.74116 -2.77682,-7.14479 -3.62695,-9.13086 -0.42392,-0.99035 -2.16743,-6.61822 -2.40039,-7.74805 -0.0627,-0.30435 -0.16982,-3.10495 -0.23633,-6.22461 -0.15353,-7.20192 -0.42606,-9.10881 -1.57812,-11.01953 -0.48849,-0.81019 -1.10575,-1.70829 -1.37305,-1.99609 -0.2673,-0.28779 -0.77917,-0.95359 -1.13672,-1.48047 -0.6948,-1.02385 -2.87225,-3.10702 -3.76758,-3.60352 -2.08919,-1.15855 -4.70783,-2.82515 -4.70898,-2.99804 -8.4e-4,-0.11413 -0.14599,-0.20704 -0.32422,-0.20704 -0.17824,0 -0.52147,-0.17409 -0.76172,-0.38671 -0.24024,-0.21262 -1.25245,-0.81792 -2.25,-1.34375 -3.19313,-1.68317 -6.37815,-4.12621 -11.00781,-8.44727 -3.96431,-3.70006 -6.10649,-5.97149 -7.69727,-8.16016 -1.93798,-2.66638 -2.44844,-3.15729 -3.49609,-3.35546 -0.99187,-0.18762 -3.03984,-1.17272 -4.29492,-2.06641 -0.45508,-0.32404 -0.9511,-0.58985 -1.10156,-0.58985 -0.15045,0 -0.33768,-0.16693 -0.41602,-0.37109 -0.0783,-0.20416 -0.83844,-0.83357 -1.68945,-1.39844 -0.851,-0.56487 -1.54688,-1.14501 -1.54688,-1.28906 0,-0.14404 -0.14481,-0.26172 -0.32226,-0.26172 -0.17745,0 -0.52069,-0.18659 -0.76172,-0.41406 -0.97871,-0.92361 -2.19815,-1.79883 -2.50391,-1.79883 -0.69355,0 -8.3083,-6.5449 -8.3125,-7.14453 -8.3e-4,-0.10392 -0.46474,-0.6862 -1.0332,-1.29492 -0.56845,-0.6087 -1.16079,-1.31231 -1.31446,-1.5625 -0.38672,-0.62959 -4.4766,-5.69499 -5.55273,-6.87695 -0.7513,-0.825174 -2.87201,-3.279899 -4.0625,-4.703129 -0.19107,-0.22843 -1.33948,-1.910348 -2.55273,-3.736329 -1.21323,-1.82598 -2.27129,-3.380941 -2.35157,-3.457031 -0.21185,-0.2008 -0.75671,-1.114572 -1.27148,-2.132812 -0.24649,-0.48758 -0.62364,-1.031175 -0.83789,-1.208985 -0.21425,-0.17781 -0.38867,-0.424495 -0.38867,-0.546875 0,-0.32454 -2.61926,-4.242061 -4.33789,-6.488281 -0.81504,-1.06525 -1.66746,-2.185884 -1.892582,-2.490234 -0.94055,-1.27162 -5.363581,-5.932377 -7.625,-8.035156 -1.478491,-1.374751 -3.964954,-2.935856 -5.152344,-3.234376 -0.147905,-0.03718 -0.258508,-0.06329 -0.330078,-0.06445 z"
       transform="translate(222.04724,332.36221)"
       id="path4149"
       inkscape:connector-curvature="0"
       sodipodi:nodetypes="sssssssscscssssssssssccccsscscssscscscsssssscsssscssssssscscssscsscssssssccscscscsssssssssssscscccccsccsscscscsssscssccsssssscscscscscscscccccscsccssssssscccscscsssssscsccsssccscssssscsssscccsscscccssssccsssssssssccscscsscssccsccccscscscssscsssssssssscsscsscscsssssscssscscscssscsssscscc" />
  </g>
</svg>
