<?xml version="1.0" encoding="UTF-8" standalone="no"?>
<!-- Created with Inkscape (http://www.inkscape.org/) -->

<svg
   xmlns:dc="http://purl.org/dc/elements/1.1/"
   xmlns:cc="http://creativecommons.org/ns#"
   xmlns:rdf="http://www.w3.org/1999/02/22-rdf-syntax-ns#"
   xmlns:svg="http://www.w3.org/2000/svg"
   xmlns="http://www.w3.org/2000/svg"
   xmlns:sodipodi="http://sodipodi.sourceforge.net/DTD/sodipodi-0.dtd"
   xmlns:inkscape="http://www.inkscape.org/namespaces/inkscape"
   width="582.44012"
   height="590.60565"
   id="svg2"
   version="1.1"
   inkscape:version="0.48.2 r9819"
   sodipodi:docname="logo.svg">
  <defs
     id="defs4" />
  <sodipodi:namedview
     id="base"
     pagecolor="#ffffff"
     bordercolor="#666666"
     borderopacity="1.0"
     inkscape:pageopacity="0.0"
     inkscape:pageshadow="2"
     inkscape:zoom="1.4019506"
     inkscape:cx="291.22006"
     inkscape:cy="295.30284"
     inkscape:document-units="px"
     inkscape:current-layer="layer1"
     showgrid="false"
     fit-margin-top="0"
     fit-margin-left="0"
     fit-margin-right="0"
     fit-margin-bottom="0"
     inkscape:window-width="1920"
     inkscape:window-height="1017"
     inkscape:window-x="-8"
     inkscape:window-y="-8"
     inkscape:window-maximized="1" />
  <metadata
     id="metadata7">
    <rdf:RDF>
      <cc:Work
         rdf:about="">
        <dc:format>image/svg+xml</dc:format>
        <dc:type
           rdf:resource="http://purl.org/dc/dcmitype/StillImage" />
        <dc:title></dc:title>
      </cc:Work>
    </rdf:RDF>
  </metadata>
  <g
     inkscape:label="Layer 1"
     inkscape:groupmode="layer"
     id="layer1"
     transform="translate(-32.490529,-346.69704)">
    <path
       style="fill:#000000"
       d="m 369.63569,935.85602 c -1.57537,-0.82161 -3.45334,-1.49384 -4.17327,-1.49384 -2.02802,0 -7.07081,-4.64298 -11.99938,-11.04804 -2.46427,-3.2025 -5.3307,-6.09257 -6.36984,-6.42238 -2.34844,-0.74536 -5.93312,-9.58554 -6.09448,-15.02958 -0.33878,-11.43007 -0.21799,-14.31403 0.74366,-17.75533 0.6079,-2.17541 0.67249,-3.98827 0.15351,-4.30901 -0.49274,-0.30453 -0.89589,0.57131 -0.89589,1.94631 0,3.40408 -1.6421,4.18016 -2.40587,1.13704 -0.34057,-1.35694 -1.73785,-4.11556 -3.10507,-6.13027 -2.42656,-3.57573 -3.69048,-7.29276 -4.89304,-14.38981 -0.70225,-4.14436 -8.3289,-14.71208 -18.40169,-25.49792 -10.97698,-11.75405 -15.65823,-19.56307 -18.7987,-31.35901 -1.76382,-6.6251 -6.20191,-12.94569 -12.02765,-17.12943 -2.43908,-1.75161 -5.08182,-4.17239 -5.87276,-5.37952 -2.12113,-3.23726 -7.47362,-19.94907 -9.33079,-29.13305 -2.18898,-10.82483 -2.11475,-28.70666 0.16334,-39.34998 0.98297,-4.59249 1.54244,-9.54249 1.24326,-11 -0.29918,-1.45751 -0.18049,-7.82502 0.26375,-14.15002 0.86325,-12.29083 0.95615,-11.68032 -5.32384,-34.98808 -4.1684,-15.47071 -9.95913,-31.35286 -17.00355,-46.63531 -3.00164,-6.51189 -6.95599,-8.99717 -16.58187,-10.42159 -15.50959,-2.29509 -23.62665,-4.22729 -29.58995,-7.04366 -3.39044,-1.60125 -6.76544,-2.91065 -7.5,-2.90979 -0.73456,8.7e-4 -5.61057,-1.97969 -10.83557,-4.40124 -5.225,-2.42155 -13.1,-5.21494 -17.5,-6.20753 -4.4,-0.9926 -10.925,-2.97571 -14.5,-4.40691 -12.85069,-5.1446 -36.51186,-21.7669 -48.97497,-34.4056 -4.48716,-4.55038 -8.29539,-7.58029 -9.5275,-7.58029 -1.12888,0 -2.94014,-0.59188 -4.02502,-1.31529 -2.63557,-1.75742 -10.52554,-4.09821 -12.77269,-3.78939 -0.9901,0.13607 -3.6901,1.10541 -6,2.15408 -5.41601,2.45882 -9.31428,2.43852 -14.51786,-0.0756 -2.30653,-1.1144 -5.65355,-2.29859 -7.43783,-2.63153 C 40.8421,523.78976 35,520.25207 35,518.19836 c 0,-1.10793 1.62754,-2.62019 4.25,-3.94897 2.3375,-1.18439 6.44628,-3.89353 9.13063,-6.02032 4.80395,-3.80614 9.3445,-5.19894 8.33001,-2.55521 -0.27684,0.72143 0.34001,2.40893 1.37077,3.75 2.40424,3.12804 2.38749,3.93832 -0.0814,3.93832 -1.55555,0 -2,-0.66667 -2,-3 0,-2.30293 -0.451,-3 -1.94098,-3 -3.12783,0 -3.42822,1.92175 -0.64284,4.11272 1.4211,1.11784 2.58382,2.62663 2.58382,3.35287 0,1.62681 2.47932,2.67145 4.5,1.89604 0.89505,-0.34347 1.5,-0.009 1.5,0.83049 0,2.73775 11.98935,5.25216 13.48723,2.82855 0.87165,-1.41037 -1.29564,-5.02067 -3.01394,-5.02067 -0.80099,0 -2.0184,-0.9 -2.70536,-2 -0.68696,-1.1 -1.58563,-2 -1.99705,-2 -1.32982,0 -4.77088,-3.40597 -4.77088,-4.72224 0,-0.70277 -1.125,-1.27776 -2.5,-1.27776 -1.375,0 -2.5,-0.39758 -2.5,-0.8835 0,-1.51311 13.20695,-1.84964 19,-0.48415 3.025,0.71302 6.63304,1.31244 8.01787,1.33203 3.55628,0.0503 10.67133,4.98441 8.85153,6.13831 -2.19358,1.39092 1.93369,7.61354 8.88602,13.39731 9.32602,7.7585 19.38487,14.88728 22.74716,16.12109 1.68031,0.61659 5.29213,2.23972 8.02627,3.60694 2.73413,1.36722 6.32115,2.79504 7.97115,3.17293 4.92506,1.12796 15.56936,6.86179 19.41147,10.45649 1.97369,1.8466 5.80764,4.48303 8.5199,5.85875 4.20404,2.13239 4.6725,2.64617 3.17622,3.48353 -2.21375,1.23887 -9.60383,-1.07767 -18.50227,-5.79984 C 147.48098,558.2467 146,557.77664 146,559.18945 c 0,0.455 4.58649,3.02702 10.19221,5.71559 8.95058,4.29283 10.91606,4.87009 16.13415,4.73859 7.0475,-0.17761 8.808,-1.37052 6.22873,-4.22058 -1.80993,-1.99995 -1.53596,-5.06087 0.45298,-5.06087 0.58895,0 3.40957,1.575 6.26803,3.5 2.85846,1.925 5.93927,3.5 6.84624,3.5 3.40469,0 11.41736,5.31774 10.42705,6.92008 -0.40231,0.65096 -4.71546,1.10784 -10.85841,1.15021 -11.25078,0.0776 -18.55665,1.73714 -8.19098,1.8606 3.3,0.0393 9.375,0.77638 13.5,1.63794 4.125,0.86156 10.425,2.18658 14,2.94449 3.575,0.7579 12.05187,1.69541 18.83749,2.08333 12.09424,0.69141 12.44544,0.77859 17.81271,4.42135 3.01136,2.04382 6.14751,4.67588 6.96921,5.84902 0.8217,1.17314 2.04784,2.13298 2.72477,2.13298 0.67692,0 4.21016,2.8125 7.85164,6.25 5.70246,5.38304 6.85755,7.08228 8.32716,12.25 0.93846,3.3 2.18051,7.125 2.76011,8.5 1.02289,2.42663 1.07506,2.38261 1.77765,-1.5 0.39812,-2.2 0.53502,-4.31442 0.30424,-4.6987 -0.23079,-0.38429 0.10203,-2.77031 0.73958,-5.30227 0.96579,-3.83551 1.51258,-4.55314 3.27732,-4.3013 3.40278,0.4856 5.45755,6.16742 5.71473,15.80227 0.24824,9.2999 -1.69354,28.37834 -3.16889,31.13506 -1.17014,2.18642 -1.22374,9.16592 -0.0649,8.44972 0.47455,-0.29329 1.40425,-2.68235 2.066,-5.30902 0.66175,-2.62667 1.89142,-7.02576 2.7326,-9.77576 0.84119,-2.75 2.09073,-11.30988 2.77677,-19.02197 1.15639,-12.99928 2.46771,-18.47803 4.42268,-18.47803 0.43478,0 1.8392,1.11629 3.12094,2.48064 2.00642,2.13574 2.44149,3.978 3.12912,13.25 1.18222,15.94106 1.5726,17.68432 5.87741,26.24618 l 3.94328,7.84279 5.18012,1.11093 c 2.84906,0.61102 5.35831,0.93274 5.57611,0.71494 0.2178,-0.2178 -0.14175,-3.26463 -0.79899,-6.77074 -0.65725,-3.50611 -1.38479,-9.3292 -1.61676,-12.9402 -0.57825,-9.00173 0.71064,-9.97915 7.29044,-5.52864 2.7156,1.8368 5.7947,4.29689 6.84245,5.46687 1.04774,1.16997 2.28641,2.12723 2.7526,2.12723 0.46619,0 2.37252,1.68788 4.23628,3.75085 3.38872,3.7509 19.11951,13.24915 21.94296,13.24915 0.82308,0 1.68137,-0.55459 1.90731,-1.23242 1.51645,-4.54934 -5.74778,-21.83793 -12.82755,-30.52909 -2.46576,-3.02698 -6.24429,-8.51899 -8.39672,-12.20447 -4.65744,-7.97463 -5.64271,-8.89135 -9.94779,-9.25555 -5.12185,-0.43331 -5.77713,1.56696 -3.61481,11.03445 3.71806,16.27914 -2.40239,14.2724 -7.05427,-2.31292 -1.16565,-4.1559 -1.76166,-10.68866 -1.93918,-21.25512 -0.24488,-14.5764 0.4532,-18.62512 2.60753,-15.123 4.02857,6.54895 7.71603,9.7236 13.21389,11.37625 3.18188,0.95648 7.52808,3.14818 9.65822,4.87046 3.33858,2.69934 4.39294,4.64893 7.64145,14.12953 2.07266,6.04896 4.36396,11.59361 5.09178,12.32143 0.72782,0.72782 1.32331,1.73996 1.32331,2.24921 0,0.50925 1.27976,3.7396 2.84392,7.17857 6.68304,14.69339 8.34669,21.65947 6.15209,25.76013 -1.01371,1.89413 -0.88144,2.55155 0.86466,4.29765 2.55206,2.55206 2.5699,2.50319 4.12791,-11.30511 0.97712,-8.6601 3.13879,-21.31753 6.48973,-38 0.27619,-1.375 -0.64262,0.875 -2.0418,5 -1.39918,4.125 -2.91889,7.87661 -3.37714,8.33691 C 375.57574,628.18935 365,602.92348 365,597.88876 c 0,-2.99692 -8.89393,-12.02798 -13.96216,-14.17745 -6.66676,-2.82742 -11.54254,-4.23586 -17.03784,-4.92165 -5.55893,-0.69372 -9,-2.6311 -9,-5.06714 0,-1.02738 1.42092,-1.19545 6.25,-0.7393 24.07174,2.27384 42.04035,7.41429 48.80418,13.96188 l 3.55418,3.44055 13.44582,-1.57964 c 9.98806,-1.17342 18.58907,-1.43936 33.44582,-1.03414 11,0.30003 20.81406,0.55559 21.80902,0.56791 3.52472,0.0436 0.57485,1.91693 -4.08233,2.59244 -2.59968,0.37708 -5.42075,1.0439 -6.26904,1.48183 -2.45957,1.26975 -31.76966,6.79838 -39.45765,7.44273 -13.87807,1.16315 -12.95388,0.63439 -15.33634,8.77445 -2.70528,9.24301 -8.41674,41.18096 -8.93082,49.94026 -0.3743,6.37767 -0.20665,6.99553 3.39189,12.5 2.0821,3.18488 5.20958,7.59069 6.94994,9.79069 3.46154,4.37575 11.16468,19.2258 12.44948,24 6.04038,22.44547 6.54639,25.03037 9.97956,50.9788 0.57099,4.31561 0.56321,9.46737 -0.0204,13.5 -1.33163,9.2017 -1.20555,15.16867 0.46034,21.7863 5.23047,20.7776 5.86532,25.10735 5.19071,35.40133 -0.36498,5.56945 -1.35212,12.49466 -2.19363,15.38936 -0.94301,3.24383 -1.44886,8.46307 -1.31848,13.60365 0.32819,12.93904 -0.69715,27.19885 -1.98661,27.62867 C 410.51105,883.3585 410,882.87145 410,882.06796 c 0,-0.80349 -0.60699,-1.96465 -1.34887,-2.58036 -1.50903,-1.25238 -6.58309,-11.29728 -9.10588,-18.02652 -2.24194,-5.98009 -10.07893,-15.76504 -13.26755,-16.56534 -4.86097,-1.22002 -4.23261,1.05575 2.2051,7.98638 9.54181,10.2724 11.66915,14.77772 12.69253,26.88053 0.79698,9.42532 1.042,10.22855 4.07476,13.35756 2.68505,2.77027 2.9769,3.4872 1.73835,4.27027 -0.81864,0.51759 -2.83844,0.96228 -4.48844,0.98819 -1.65,0.0259 -3.85379,0.69339 -4.89732,1.48328 -2.87164,2.17367 -3.46423,1.06494 -2.87919,-5.38694 0.94161,-10.3843 -0.47252,-18.52882 -4.1446,-23.8703 -3.16199,-4.59948 -7.86257,-8.29218 -9.04732,-7.10743 -1.13444,1.13444 3.27309,9.50689 5.91655,11.23895 2.60756,1.70854 2.6771,2.00611 2.44031,10.4423 -0.1576,5.61455 0.21128,9.52814 1.04369,11.07304 2.18347,4.05235 3.01948,8.02249 1.8425,8.7499 -0.59291,0.36644 -1.62187,-0.0775 -2.28657,-0.98651 -1.93983,-2.65289 -2.88083,-1.90119 -1.07333,0.85741 1.86696,2.84935 1.291,4.56611 -2.8229,8.41412 -3.18493,2.9791 -3.27546,5.08482 -0.33727,7.8451 2.16938,2.03803 2.43382,2.05902 7,0.55578 5.22063,-1.7187 5.91932,-2.76164 2.49545,-3.72499 -2.18473,-0.6147 -2.19478,-0.67531 -0.34647,-2.08914 1.86221,-1.42447 11.77489,-1.52358 12.34647,-0.12345 0.73552,1.8017 -0.0341,2.61568 -2.5,2.64419 -2.55807,0.0296 -2.62241,0.12851 -0.92185,1.41739 1.70721,1.29392 1.40949,1.82294 -4.5,7.9961 -7.21132,7.53308 -11.07169,9.12955 -19.52266,8.07367 C 376.78548,935.44135 375,935.57902 375,936.29022 c 0,1.48909 -1.98457,1.32845 -5.36431,-0.4342 z M 390,929.86218 c 0,-1.925 -0.15785,-3.5 -0.35078,-3.5 -2.33291,0 -6.64922,2.55189 -6.64922,3.93116 0,2.41422 0.88881,3.06884 4.16667,3.06884 2.57143,0 2.83333,-0.32353 2.83333,-3.5 z m -11.66424,1.0674 c 0.54054,-1.40861 -0.8604,-18.8892 -1.87084,-23.34403 -0.28402,-1.25214 -1.69636,-4.85214 -3.13855,-8 -1.66996,-3.64502 -2.79881,-8.17453 -3.10863,-12.47337 -0.26756,-3.7125 -0.89948,-6.75 -1.40427,-6.75 -0.53349,0 -0.65565,-3.45451 -0.29174,-8.25 0.54255,-7.14945 0.35143,-8.7745 -1.43271,-12.18179 -2.39481,-4.57352 -2.11588,-5.40086 1.06882,-3.17021 3.84412,2.69253 4.51557,2.02998 4.57724,-4.5165 0.0671,-7.12703 -1.97295,-11.40937 -6.7913,-14.25564 -2.69622,-1.5927 -3.48888,-1.67209 -5.57063,-0.55797 -2.95024,1.57892 -3.89708,4.63352 -3.75971,12.12926 0.0667,3.64235 -0.33518,5.86583 -1.11439,6.16484 -0.67034,0.25723 -1.53194,2.82826 -1.91466,5.71339 -0.38273,2.88513 -1.34578,6.17358 -2.14013,7.30766 -0.79434,1.13408 -1.44426,2.41184 -1.44426,2.83947 0,1.11716 4.76833,0.96136 5.47301,-0.17884 2.15025,-3.47917 9.09339,6.53893 10.0357,14.48028 1.06064,8.93855 3.17808,17.46477 4.7992,19.32475 3.23823,3.71536 4.80744,12.30856 2.65698,14.54995 -1.37639,1.43459 -5.74259,-2.04258 -7.91717,-6.30512 -1.76483,-3.45933 -4.76376,-6.89224 -10.78313,-12.34353 C 352.10146,899.1532 348,898.74989 348,900.49616 c 0,0.62369 0.52123,2.87369 1.15829,5 0.83106,2.77384 1.74921,3.91434 3.25,4.03706 3.46368,0.28324 6.04154,0.53768 6.96415,0.68739 0.47985,0.0779 0.29695,0.83501 -0.40645,1.68255 -1.07656,1.29718 -0.73996,2.10058 2.12756,5.07816 1.87355,1.94546 4.86895,4.15405 6.65645,4.908 1.7875,0.75394 3.25,2.07258 3.25,2.93031 0,1.96944 -2.40582,0.73746 -9.17941,-4.70064 -4.78675,-3.84299 -7.01324,-4.89879 -4.86042,-2.3048 0.66279,0.79861 0.92515,2.33396 0.58303,3.41189 -0.50297,1.58471 -0.0273,2.0905 2.48495,2.64228 1.70884,0.37533 3.35965,1.34084 3.66846,2.14559 0.30881,0.80474 1.1455,1.23906 1.85932,0.96514 0.71381,-0.27391 1.86244,0.18227 2.5525,1.01374 1.27565,1.53706 6.45545,4.13939 8.53458,4.28778 0.62866,0.0449 1.39039,-0.5631 1.69275,-1.35103 z M 399,924.36218 c 0.5887,-1.1 0.79995,-2 0.46944,-2 -1.33023,0 -4.46944,2.13183 -4.46944,3.03518 0,1.75448 2.91007,1.00137 4,-1.03518 z m -20.44026,-24.75 c 0.3577,-2.0625 1.00576,-5.43973 1.44013,-7.50495 0.58121,-2.7634 0.1569,-6.19624 -1.60685,-13 -3.29325,-12.70389 -3.23926,-12.59531 -4.78335,-9.61907 -2.83771,5.46968 -2.82316,12.27375 0.0499,23.36004 1.49863,5.78269 3.0679,10.51398 3.48728,10.51398 0.41937,0 1.05516,-1.6875 1.41286,-3.75 z m -21.0669,-11.03076 c -0.005,-4.61915 -0.51452,-6.77195 -2.10598,-8.9055 -2.77416,-3.71913 -5.63741,-4.33957 -5.32145,-1.1531 0.12758,1.28665 -0.11828,3.15341 -0.54636,4.14837 -1.37093,3.18639 0.7088,9.99522 3.48095,11.39627 3.82792,1.93464 4.5006,1.11326 4.49284,-5.48604 z m -15.82679,-24.2846 c 0.28845,-8.81628 0.0733,-10.90607 -1.23458,-11.99151 -3.35815,-2.78702 -4.61321,4.2928 -1.90852,10.76604 1.88675,4.51563 0.54291,6.56539 -2.49932,3.81221 -2.75366,-2.49202 -2.58534,-0.62125 0.56347,6.26275 2.29037,5.00727 2.70997,5.43643 3.65836,3.74174 0.5892,-1.05283 1.22846,-6.71889 1.42059,-12.59123 z m 6.23061,4.06536 c 2.05311,-8.05885 3.51369,-17.39057 3.55898,-22.73851 0.0424,-5.00857 -0.18609,-5.46895 -5.20564,-10.4881 -4.45443,-4.45407 -5.25,-4.91937 -5.25,-3.0705 0,3.40321 -1.91,3.75752 -4.88598,0.90635 -2.4705,-2.36689 -5.11402,-3.4366 -5.11402,-2.0694 0,2.71579 9.55352,16.92544 14.37735,21.38447 2.83405,2.61973 3.44641,5.07569 1.26554,5.07569 -0.98596,0 -1.50968,2.22605 -1.91501,8.13968 -0.58824,8.58226 0.027,12.89774 1.32515,9.29515 0.38346,-1.06416 1.21309,-3.95983 1.84363,-6.43483 z m 63.69338,-1.50271 c 0.34547,-1.3765 0.31689,-4.189 -0.0635,-6.25 -0.87983,-4.76677 -0.99484,-9.49022 -0.5069,-20.8178 0.35906,-8.33584 0.16317,-9.5356 -2.4186,-14.81253 -1.54511,-3.15811 -2.59839,-5.95292 -2.34062,-6.21069 0.59912,-0.59913 2.98654,3.152 4.67394,7.34373 0.71956,1.7875 1.65952,3.25 2.08879,3.25 0.42927,0 1.07985,-2.5875 1.44573,-5.75 0.54413,-4.70328 -0.0718,-9.07179 -3.38356,-23.9977 -3.61338,-16.2854 -4.04181,-19.62279 -3.984,-31.03475 0.0356,-7.03287 -0.41975,-15.4714 -1.01195,-18.75229 -0.5922,-3.28089 -1.51259,-9.79026 -2.04533,-14.46526 -2.65108,-23.26469 -3.06741,-25.0691 -8.23962,-35.71136 -3.34903,-6.89091 -5.54591,-10.28738 -6.65237,-10.28483 -5.79413,0.0134 -19.72796,3.25313 -25.92468,6.02779 -3.99996,1.79104 -7.1308,3.39828 -6.95743,3.57165 0.17337,0.17337 2.95142,-0.37319 6.17345,-1.21457 6.05582,-1.5814 10.98691,-1.17953 10.31356,0.84052 -0.21183,0.63549 -3.57325,1.93911 -7.46982,2.89693 -9.42268,2.3162 -18.87732,6.13146 -18.27329,7.37387 0.58373,1.20065 18.46085,1.3599 19.64502,0.175 0.45348,-0.45375 0.0408,-1.26361 -0.91717,-1.79969 -6.45478,-3.61228 6.54587,-3.99363 15.27178,-0.44797 3.28555,1.33503 7.26929,3.34986 8.85276,4.47739 3.71548,2.64566 8.84962,13.00423 10.22259,20.62498 0.5916,3.28366 1.75093,8.37817 2.5763,11.32113 1.9456,6.93726 3.8594,23.33994 2.98814,25.61043 -1.31538,3.42782 -3.48149,-0.33211 -4.19008,-7.27316 -0.88737,-8.69218 -3.99721,-21.89511 -5.65768,-24.01986 -3.44251,-4.40506 -10.61673,-11.08345 -13.30548,-12.3859 -3.07582,-1.48995 -10.45094,-3.1762 -18.59588,-4.25177 -5.38332,-0.71089 -6.14604,-0.0764 -8.8716,7.38044 -1.50409,4.11504 -1.64961,5.72666 -0.77451,8.578 0.94118,3.06663 3.74199,5.03874 3.74199,2.63481 0,-0.48189 2.5875,-1.10232 5.75,-1.37873 6.52465,-0.57027 19.36265,2.14188 22.17163,4.68397 2.06137,1.86552 3.76164,2.02112 4.30405,0.39388 0.9989,-2.9967 2.67055,0.89066 3.30794,7.6925 0.60512,6.45755 1.1725,8.09263 4.07498,11.74333 3.24564,4.0823 4.40671,7.74122 2.4565,7.74122 -2.19952,0 -6.62285,-2.28252 -9.75827,-5.03546 -1.85705,-1.6305 -4.32367,-2.96454 -5.4814,-2.96454 -1.15773,0 -2.63812,-0.72914 -3.28976,-1.62031 -1.24771,-1.70634 -7.02717,-2.08956 -12.70525,-0.84245 -2.78783,0.61231 -2.92721,0.5121 -1.9159,-1.37756 1.33119,-2.48734 7.9894,-3.69539 15.13955,-2.74689 2.72025,0.36085 4.94591,0.29114 4.94591,-0.15491 0,-0.44605 -1.81105,-1.98531 -4.02456,-3.42057 -4.10197,-2.65977 -14.78049,-4.61682 -18.14553,-3.32554 -2.29237,0.87967 -6.24577,13.65892 -5.45253,17.62514 0.34523,1.72615 1.75628,4.18439 3.13567,5.46276 2.37497,2.20105 2.47251,2.70589 1.83929,9.5191 -0.76469,8.22782 0.58874,8.81342 2.67403,1.15699 2.02535,-7.43636 5.45674,-14.54885 8.26455,-17.13053 3.57297,-3.28522 4.91288,-1.96785 2.60423,2.56043 -2.32011,4.55075 -2.43805,10.8988 -0.28275,15.21919 1.52197,3.05087 1.48926,3.5502 -0.5832,8.90364 -3.99979,10.33196 -5.25739,18.34332 -3.20212,20.39859 0.87249,0.87249 3.11665,-3.72021 6.70755,-13.72708 2.18013,-6.07546 5.85708,-10.28053 9.92781,-11.35373 4.27258,-1.12642 6.08314,-0.43082 9.06941,3.48438 2.35135,3.08277 2.5384,3.95889 1.91336,8.96158 l -0.69277,5.54477 -2.80497,-2.68733 -2.80497,-2.68733 -2.99479,2.13248 c -2.92028,2.07942 -5.35654,8.18514 -3.52291,8.82906 3.59658,1.263 5.92334,3.16142 6.19522,5.05472 0.2629,1.83081 -0.58458,2.62944 -4.74869,4.47496 -3.18989,1.41376 -5.06919,2.86978 -5.07001,3.92811 -7.3e-4,0.92492 2.17368,3.74096 4.83201,6.25787 3.8092,3.60655 4.83334,5.2514 4.83334,7.76277 0,1.85007 0.59014,3.38329 1.40705,3.6556 0.77388,0.25796 2.65088,1.71285 4.17112,3.23309 1.52024,1.52024 3.50134,2.90918 4.40243,3.08653 2.53843,0.49962 4.04781,3.49698 2.77617,5.51295 C 405.8399,856.56309 404,856.81045 404,854.5129 c 0,-1.16209 -0.87902,-2.29494 -2.07536,-2.67464 -3.19877,-1.01525 -3.10072,-0.26301 0.57042,4.3762 1.86614,2.35824 4.15431,6.28121 5.08482,8.71771 1.91317,5.00956 3.09411,5.57712 4.01016,1.9273 z m -4.0514,-66.64845 c -1.62324,-8.19055 -5.35774,-14.33564 -9.31578,-15.32904 -1.86011,-0.46686 -2.2203,-0.92236 -1.38771,-1.75495 1.46777,-1.46777 5.65258,0.6965 8.11971,4.19929 2.529,3.59064 5.41855,14.06245 4.21299,15.26801 -0.6207,0.6207 -1.20255,-0.23047 -1.62921,-2.38331 z m -74.01534,49.42367 c -0.33766,-1.79988 -1.12703,-3.27251 -1.75416,-3.27251 -0.62713,0 -2.17997,-0.97677 -3.45075,-2.17061 -3.66893,-3.44678 -3.98132,-1.22369 -0.5184,3.68919 1.73999,2.46855 3.43864,5.72423 3.77476,7.23485 1.39121,6.25235 1.92221,6.78932 2.24386,2.26908 0.17524,-2.46262 0.0423,-5.95012 -0.29531,-7.75 z m 42.46592,-7.75952 c 1.65097,-1.98929 0.78275,-5.04033 -4.45792,-15.66577 -2.82359,-5.72484 -4.76084,-11.35148 -5.53535,-16.07718 -1.08018,-6.59076 -1.63326,-7.73722 -5.91936,-12.27004 -2.60031,-2.75 -6.25139,-7.5875 -8.1135,-10.75 -1.86212,-3.1625 -3.74059,-5.75 -4.17438,-5.75 -1.10557,0 -1.1172,-0.0551 2.16185,10.23804 1.62281,5.09408 3.25035,12.86196 3.61676,17.26196 0.36642,4.4 1.69306,12.05 2.9481,17 l 2.28189,9 4.25672,0.58787 c 3.23442,0.44669 4.99994,1.44539 7.35135,4.15845 3.57703,4.12718 3.92315,4.26768 5.58384,2.26667 z m -45.3109,-2.9089 c -0.29462,-0.76775 -1.06475,-3.16183 -1.7114,-5.32018 -0.88449,-2.95215 -1.93862,-4.21221 -4.25539,-5.08669 -3.74245,-1.41262 -4.59361,-0.82939 -2.37207,1.62539 0.9133,1.00918 1.66054,2.40327 1.66054,3.09797 0,1.83965 4.26902,6.95934 5.85699,7.02409 0.76041,0.031 1.12149,-0.55836 0.82133,-1.34058 z m 24.91998,-8.35409 c -0.34917,-1.5125 -1.25458,-6.03757 -2.01201,-10.05571 -0.75744,-4.01815 -2.09921,-8.10358 -2.98172,-9.07875 C 349.72205,810.50256 349,809.19906 349,808.58106 c 0,-0.618 -2.19064,-3.31428 -4.86809,-5.99174 -5.69062,-5.69061 -14.99444,-10.47099 -19.52113,-10.03012 -2.91126,0.28355 -3.09705,0.54019 -2.89665,4.00144 0.15057,2.60066 1.5605,5.52738 4.75,9.86001 2.49473,3.38885 4.53587,7.23704 4.53587,8.55154 0,2.95415 -0.72539,2.9966 -3.68555,0.21568 -2.70643,-2.54257 -2.91816,-1.51482 -0.75466,3.66317 1.46244,3.5001 6.93749,9.51114 8.66307,9.51114 1.111,0 0.95947,-4.39022 -0.26244,-7.60411 -0.79521,-2.09157 0.55643,-1.13765 5.75,4.05803 7.0157,7.01856 9.11877,8.37456 13.15616,8.48269 2.07766,0.0557 2.28907,-0.27234 1.73172,-2.68661 z M 324,821.69092 c 0,-1.00851 -3.18696,-4.32874 -4.15499,-4.32874 -1.25079,0 -1.02468,2.42033 0.35499,3.8 1.28656,1.28656 3.8,1.63629 3.8,0.52874 z m 26,-23.00779 c 0,-0.37348 -0.87445,-3.63598 -1.94321,-7.25 -5.03663,-17.03127 -6.11187,-23.28485 -7.17944,-41.75534 -1.20143,-20.78627 -1.6012,-23.26326 -3.07711,-19.06561 -1.24242,3.53358 -1.94431,3.43866 -3.86505,-0.52271 -3.16194,-6.52124 -14.28831,-11.68715 -18.89543,-8.77303 -1.25071,0.79111 -1.19504,1.21668 0.38802,2.96593 2.94032,3.24902 0.50938,5.31629 -5.7682,4.90525 -3.32781,-0.21789 -5.11168,0.0875 -5.3981,0.92403 -0.49809,1.45478 -0.0521,1.61183 9.23852,3.25279 6.79617,1.20038 14.51016,4.72129 21.25,9.69916 4.12743,3.04841 4.12763,4.37474 6.1e-4,4.05239 -5.05678,-0.39498 -4.91863,3.0496 0.32437,8.08755 2.88206,2.76934 3.99053,4.54554 3.5512,5.69043 -0.54583,1.42238 -1.17123,1.19683 -4.30101,-1.55115 -6.06006,-5.3208 -15.44348,-8.98064 -23.02538,-8.98064 -5.52886,0 -6.42199,0.23917 -5.90678,1.58179 0.33385,0.86998 0.60699,2.33474 0.60699,3.25502 0,1.39955 1.10407,1.67241 6.75,1.66821 9.51806,-0.007 14.71492,2.85516 23.40917,12.8929 9.60035,11.08386 8.9283,12.43252 -2.82133,5.66174 -5.97179,-3.44128 -13.09506,-5.95713 -17.08784,-6.03521 -0.6875,-0.0134 -1.25,1.05393 -1.25,2.37196 0,3.65017 6.05732,8.27805 18.46876,14.11041 11.7071,5.50138 12.87579,6.40384 13.9124,10.74318 0.56723,2.37446 2.61884,3.99685 2.61884,2.07095 z m -53.87105,-11.07095 c 0.58625,-3.40982 0.25928,-6.51284 -0.7769,-7.37278 -1.27315,-1.05663 -2.74005,-7.326 -3.89041,-16.62722 -0.50856,-4.11192 -1.03311,-5.25 -2.41976,-5.25 -1.59664,0 -1.73732,0.9641 -1.43304,9.82126 0.32456,9.44747 1.21516,13.07951 4.39625,17.92874 1.42095,2.16608 3.85699,3.05216 4.12386,1.5 z m 32.57781,-79.81878 c -13.16588,-12.67138 -19.20289,-15.98921 -28.74364,-15.79702 -6.40197,0.12896 -11.86872,1.79978 -10.45969,3.19682 0.37109,0.36794 4.57213,0.66898 9.33564,0.66898 6.94499,0 9.55931,0.44278 13.19533,2.23484 5.90395,2.90983 23.68375,20.25108 24.57259,23.96648 1.16057,4.85129 1.88192,4.94802 2.22726,0.29868 l 0.33424,-4.5 -10.46173,-10.06878 z m 22.6554,7.34575 c -0.26411,-0.42734 -1.57864,-0.77697 -2.92118,-0.77697 -1.92471,0 -2.44098,0.51892 -2.44098,2.45349 0,2.42733 0.0311,2.43562 2.92117,0.77697 1.60665,-0.92209 2.70509,-2.02616 2.44099,-2.45349 z m -29.00611,-3.02697 c -1.17423,-1.9263 -5.36945,-5.06838 -9.30088,-6.96607 C 307.07455,702.25929 297,703.32367 297,706.84235 c 0,1.21406 1.20995,1.50231 5.86445,1.3971 4.40303,-0.0995 7.20653,0.50147 11.25,2.41173 5.99809,2.83369 9.45156,3.44589 8.2416,1.461 z m 15.75464,-10 c 0.341,-6.93153 -1.27237,-9.50559 -14.04481,-22.40779 -9.10214,-9.19461 -14.3859,-12.58384 -21.03195,-13.4908 C 297.41311,665.44653 293,665.94809 293,667.35396 c 0,0.42622 0.9,1.01031 2,1.29797 1.1,0.28766 2,1.05469 2,1.70453 0,0.8244 -1.209,0.97726 -4,0.50572 -6.66311,-1.12573 -4.47932,0.83879 4.00761,3.60522 4.39582,1.43287 7.99239,2.43927 7.99239,2.23643 0,-0.20283 -0.54547,-1.24222 -1.21215,-2.30974 -1.82703,-2.92555 -0.12498,-3.66827 3.69367,-1.6118 6.335,3.41163 14.28736,11.41862 17.20379,17.32197 2.74851,5.56346 10.24194,14.25792 12.28837,14.25792 0.56448,0 1.07613,-1.0125 1.13701,-2.25 z m 12.33878,-6.32339 c 1.67779,-3.26722 4.30827,-7.58132 5.84552,-9.58688 3.11501,-4.06399 5.12185,-13.16127 3.55391,-16.1104 -1.36838,-2.57379 -0.0483,-3.99445 3.01019,-3.23959 4.07151,1.00487 4.47865,1.93393 3.19407,7.28867 -0.81265,3.3875 -2.91822,7.10583 -6.69944,11.83086 -8.63149,10.78596 -9.38789,13.11348 -3.04551,9.37139 C 360.11207,693.0985 366,684.89552 366,681.84036 c 0,-2.81404 4.00689,-10.47818 5.4781,-10.47818 0.71482,0 1.23718,0.7875 1.16079,1.75 -0.0868,1.09353 0.46646,1.65151 1.47484,1.48746 1.22507,-0.19931 1.49805,0.34258 1.13342,2.25 -0.44016,2.30256 -0.18299,2.51254 3.07726,2.51254 1.95665,0 3.83689,-0.45196 4.17829,-1.00437 0.3414,-0.5524 -0.64454,-2.8066 -2.19098,-5.00934 -2.46115,-3.50563 -3.80916,-4.31098 -10.81172,-6.45929 -8.86139,-2.71858 -13.10644,-3.10511 -22,-2.00322 -8.81616,1.0923 -9.13028,1.59566 -3.3551,5.37641 2.8082,1.83841 5.33355,4.2134 5.61188,5.27775 0.29449,1.12613 1.07823,1.71561 1.87464,1.41 0.93744,-0.35973 1.36858,0.27754 1.36858,2.02289 0,2.96679 -4.62805,15.15889 -6.63072,17.46791 -1.69896,1.95885 -1.82678,6.24043 -0.16981,5.6881 0.6597,-0.2199 2.5722,-3.073 4.25,-6.34023 z m -54.15972,-7.42661 c -0.4221,-1.61409 -0.0307,-2 2.02852,-2 1.40334,0 3.70583,0.43886 5.11663,0.97525 1.66667,0.63366 2.5651,0.63366 2.5651,0 0,-0.53639 -0.72699,-0.97525 -1.61552,-0.97525 -0.88854,0 -3.25104,-1.73063 -5.25,-3.84585 C 294.96265,678.10188 288,673.61833 288,675.34636 c 0,0.63102 0.48646,2.05626 1.08102,3.16721 1.7681,3.30373 0.26654,3.29194 -3.92881,-0.0308 C 281.40226,675.51272 277,674.3196 277,676.27329 c 0,1.24763 5.53168,5.80548 7.9946,6.58718 4.13917,1.31372 1.76738,2.50171 -4.9946,2.50171 -4,0 -7,0.42857 -7,1 0,1.05223 0.99689,1.18713 10.19991,1.38034 3.13495,0.0658 6.26245,0.68216 6.95,1.36966 0.68755,0.6875 2.46796,1.25 3.95647,1.25 2.21405,0 2.61124,-0.36383 2.18337,-2 z m 71.88151,0.34501 c 1.93871,-1.7545 2.46661,-4.34501 0.88544,-4.34501 -0.51881,0 -1.64381,1.00013 -2.5,2.22251 -2.67374,3.8173 -1.68885,5.11205 1.61456,2.1225 z m -27.44128,-9.32146 c -0.67055,-4.99937 -3.53599,-10.84936 -5.94598,-12.13915 -2.80167,-1.49941 -3.27514,-0.43938 -1.4873,3.32984 0.85718,1.80717 2.29205,5.53576 3.1886,8.28576 0.89655,2.75 1.85939,5.675 2.13965,6.5 0.95724,2.81788 2.64275,-1.96749 2.10503,-5.97645 z M 61.58398,526.11218 c -0.32048,-0.6875 -0.86047,-2.0375 -1.19997,-3 -0.35096,-0.99498 -1.63098,-1.75 -2.96684,-1.75 -2.54434,0 -10.41717,-6.58176 -10.41717,-8.70885 0,-0.71013 -0.45,-1.29115 -1,-1.29115 -0.55,0 -1,0.71713 -1,1.59362 0,0.87649 -0.9,1.82897 -2,2.11663 -2.80797,0.7343 -2.51374,1.66052 1.5,4.72195 2.81651,2.14826 3.5,2.35045 3.5,1.03536 0,-2.20823 2.26768,-1.35208 3.4714,1.31062 0.71037,1.57136 1.56535,1.99972 3.18166,1.59405 1.494,-0.37497 2.7905,0.12295 4.00083,1.53652 1.95938,2.28838 3.85889,2.83375 2.93009,0.84125 z m 28.21828,-12 C 89.50567,508.9607 89.42494,508.83728 85.5,507.53516 83.3,506.8053 78.125,505.99846 74,505.74218 l -7.5,-0.46597 6.15967,2.94031 c 3.38782,1.61717 6.94481,4.13858 7.90442,5.60313 1.50066,2.2903 6.15356,5.19815 8.73817,5.46096 0.44124,0.0449 0.66624,-2.28093 0.5,-5.16843 z M 388.86078,915.32891 C 391.28704,913.30763 394,912.71257 394,914.20166 c 0,0.95414 -4.47715,3.17758 -6.29705,3.12725 -0.66162,-0.0183 -0.1406,-0.9183 1.15783,-2 z M 392,909.4212 c 0,-2.25125 1.57161,-3.56118 2.48992,-2.07533 0.34546,0.55897 1.72656,1.01631 3.0691,1.01631 2.74448,0 3.27134,1.46738 0.85919,2.39301 C 395.0385,912.05211 392,911.42057 392,909.4212 z m 11.88158,-1.80902 c -0.0651,-0.4125 -0.0522,-1.12625 0.0287,-1.58611 0.0809,-0.45987 -0.76579,-1.07485 -1.88158,-1.36663 -2.58473,-0.67593 -2.64501,-2.29726 -0.0854,-2.29726 2.07216,0 5.32065,3.7639 4.45598,5.16297 -0.64292,1.04027 -2.35783,1.09955 -2.5177,0.087 z m 6.46108,-6.73331 c 0.36154,-2.63771 0.70909,-7.09553 0.77234,-9.90626 l 0.115,-5.11043 0.81658,4 c 0.96101,4.70745 0.11285,14.28344 -1.34491,15.18438 -0.66765,0.41263 -0.79082,-1.01729 -0.35901,-4.16769 z m 15.11543,-151.26669 c 1.36902,-7.54233 13.48092,-30.7995 21.73531,-41.73596 4.47422,-5.928 4.78231,-5.69227 -9.6934,-7.41691 -27.59468,-3.28764 -26.5,-3.0463 -26.5,-5.84223 l 0,-2.53853 13.25,0.57814 c 21.51749,0.93887 43.75,5.60253 43.75,9.17734 0,0.60578 -2.6528,3.68546 -5.8951,6.84372 -10.95521,10.67124 -23.03634,31.54902 -23.08808,39.89925 -0.0216,3.49016 -2.47418,4.78518 -9.06237,4.78518 l -5.17703,0 0.68067,-3.75 z M 201,750.85602 c -8.34164,-1.85962 -28,-8.67306 -28,-9.70459 0,-1.52021 5.94947,-0.76654 14.18825,1.79733 4.57146,1.42262 10.11175,3.14827 12.31175,3.83478 6.50307,2.02928 18.24353,1.39912 23.28923,-1.25005 4.29861,-2.25691 8.20003,-7.18669 8.20703,-10.37028 0.003,-1.57821 -0.26282,-1.58639 -3.74626,-0.11503 -9.20528,3.88818 -30.8953,1.55063 -43.18723,-4.65432 -8.56811,-4.32516 -9.28249,-8.04393 -3.05795,-15.91856 8.38634,-10.60952 20.67512,-16.11312 35.97839,-16.11312 10.28643,0 14.01921,1.29711 19.20795,6.67458 6.98446,7.2385 10.89333,19.60786 9.38174,29.68787 -0.79795,5.3211 -5.94688,11.74187 -11.93035,14.87728 -5.3322,2.79413 -22.73532,3.46275 -32.64255,1.25411 z m 23.86256,-21.1833 7.36255,-2.59555 -0.50822,-3.78905 c -0.74178,-5.53038 -4.58702,-12.57589 -9.0779,-16.63312 -3.78393,-3.41856 -4.1361,-3.52577 -9.67818,-2.94651 -6.72616,0.70302 -10.08464,2.01022 -15.15278,5.89783 -8.03712,6.16502 -10.17277,14.92756 -4.64056,19.04015 6.94733,5.16459 18.86196,5.55037 31.69509,1.02625 z M 149.5,741.13835 c -7.0758,-1.71782 -7.00162,-1.59351 -6.98395,-11.70284 0.0153,-8.75988 -0.0771,-9.15425 -2,-8.53529 -4.4856,1.44386 -7.51605,1.66323 -7.51605,0.54407 0,-0.62968 0.7875,-1.43711 1.75,-1.79429 0.9625,-0.35717 4.15375,-2.59305 7.09167,-4.96861 4.43926,-3.58954 6.06571,-4.31921 9.62755,-4.31921 5.6865,0 6.64842,1.3116 5.36729,7.31845 -0.56137,2.63209 -0.86674,9.26264 -0.67859,14.73456 0.37886,11.01871 0.75698,10.5233 -6.65792,8.72316 z m 338.8647,-0.69112 c -1.72444,-0.43205 -4.53694,-1.78357 -6.25002,-3.00339 C 479.11657,735.309 479,734.95342 479,727.94303 c 0,-5.90945 0.48863,-8.20688 2.59092,-12.18191 3.32248,-6.28217 5.0577,-8.17723 9.61928,-10.50535 5.8104,-2.96555 13.7128,-2.49314 25.9056,1.54865 7.2054,2.3885 11.0773,4.24737 12.6485,6.07237 1.2454,1.44658 2.0063,3.04757 1.691,3.55776 -0.3154,0.5102 -2.9464,0.92763 -5.8468,0.92763 -4.9893,0 -5.4036,-0.20084 -7.691,-3.72839 -2.9439,-4.54026 -6.1005,-5.77118 -12.3834,-4.82899 -5.4489,0.81711 -12.0272,6.18528 -13.0722,10.66749 l -0.6085,2.6101 5.8233,-0.94857 c 6.6429,-1.08208 36.3408,-0.39437 40.7468,0.94357 4.7138,1.43142 5.5084,3.76395 2.1752,6.38579 -4.6444,3.65331 -15.82,8.56468 -23.1855,10.1894 -8.423,1.85801 -24.7657,2.86768 -29.0485,1.79465 z m 26.3337,-4.55006 C 522.4021,733.46309 532,728.2538 532,726.50665 c 0,-2.77245 -3.6182,-3.64293 -14.9058,-3.58609 -10.646,0.0536 -14.6507,0.70537 -22.3442,3.63653 -6.6401,2.52984 0.6745,11.63868 9.4484,11.76595 1.4841,0.0215 6.2091,-1.07011 10.5,-2.42587 z M 316.7226,632.69931 c -0.27672,-0.46042 -1.9482,-3.53713 -3.7144,-6.83713 -1.76621,-3.3 -3.91314,-6.7906 -4.77096,-7.75689 -1.82773,-2.05882 -3.58026,-4.96827 -5.73671,-9.52376 -0.85414,-1.80435 -3.00368,-4.14017 -4.77676,-5.1907 -1.77307,-1.05053 -3.67377,-2.2959 -4.22377,-2.76749 -0.55,-0.47158 -2.8,-1.56997 -5,-2.44085 -3.71953,-1.47239 -4.06304,-1.94588 -4.89912,-6.75275 -1.19258,-6.85657 -0.0684,-8.03307 5.34376,-5.59252 5.73708,2.58706 10.18065,6.97908 15.42402,15.24509 3.7043,5.83973 5.54079,7.70703 9.60564,9.76685 2.76413,1.40069 5.05749,3.10163 5.09634,3.77987 0.0388,0.67823 0.0103,4.83315 -0.0634,9.23315 -0.12333,7.35951 -1.04048,10.90716 -2.28461,8.83713 z m -2.88522,-29.08713 c -0.80993,-0.9625 -3.3596,-4.93519 -5.66592,-8.8282 -5.32002,-8.98004 -9.83539,-11.55942 -21.40826,-12.22937 -4.29302,-0.24852 -8.08495,-0.90402 -8.4265,-1.45666 -0.34156,-0.55265 0.68046,-3.53178 2.27114,-6.62029 1.59069,-3.08852 2.90616,-5.70448 2.92328,-5.81326 0.0286,-0.18185 11.1803,1.4007 16.05688,2.27866 1.14841,0.20675 5.41387,4.05925 9.47882,8.5611 7.10232,7.86571 7.4132,8.41945 7.96459,14.18656 0.62027,6.48758 0.1806,11.67146 -0.98992,11.67146 -0.40233,0 -1.39418,-0.7875 -2.20411,-1.75 z m -58.68576,-14.33047 c -5.64055,-5.1089 -9.9408,-9.98155 -11.69349,-13.25 -3.42548,-6.3879 -11.4355,-15.26073 -13.45813,-14.90778 -3.21901,0.56172 -20.78549,-2.04551 -25.96534,-3.8538 -6.11889,-2.1361 -7.41341,-2.3298 -6.58221,-0.98489 0.31377,0.50769 2.02782,1.23364 3.80902,1.61324 1.78119,0.37959 5.24737,1.59435 7.70263,2.69946 2.49333,1.12225 6.42227,1.96999 8.89968,1.92026 5.667,-0.11375 6.69577,0.5682 4.50652,2.98729 -1.79264,1.98085 -1.68007,3.0374 1.28988,12.10669 0.41674,1.27257 0.0299,1.75 -1.41785,1.75 -1.98465,0 -4.44411,-2.15571 -10.53195,-9.23121 -2.14256,-2.49015 -7.19333,-5.76439 -15.18504,-9.84391 C 183.72861,553.75473 177,549.08862 177,546.74677 c 0,-0.79605 -0.7875,-1.73791 -1.75,-2.09303 -0.9625,-0.35512 -1.975,-0.94623 -2.25,-1.31357 -0.275,-0.36734 -6.98269,-3.97677 -14.90597,-8.02095 -7.92328,-4.04418 -13.84047,-7.54156 -13.14931,-7.77195 1.71266,-0.57088 25.38552,11.37129 37.05528,18.69315 6.38806,4.00801 10.97408,6.16898 14,6.59692 2.475,0.35002 7.2,1.59257 10.5,2.76122 5.13262,1.81764 9.18041,2.21711 28,2.76331 20.48832,0.59463 22.44663,0.81574 28.5,3.21779 8.29918,3.29323 11.18428,3.7532 16.31308,2.60084 5.8279,-1.30944 7.68967,-3.30467 7.67327,-8.22331 -0.0206,-6.18134 -0.81454,-7.95196 -4.30227,-9.59501 -2.50042,-1.17793 -3.35581,-2.35885 -3.98389,-5.5 -0.4399,-2.2 -1.2505,-5.8 -1.80134,-8 -1.19906,-4.78891 -1.22977,-5.40061 -0.40458,-8.05909 0.48885,-1.5749 0.0304,-2.33644 -1.94949,-3.23855 -1.99117,-0.90724 -2.46436,-1.7014 -2.05019,-3.44091 0.29614,-1.2438 0.93445,-6.29143 1.41847,-11.21696 0.87862,-8.94127 0.88734,-8.96242 5.48348,-13.305 2.5319,-2.39222 4.60346,-5.2477 4.60346,-6.34551 0,-1.35971 1.19012,-2.4933 3.73321,-3.55587 2.05326,-0.8579 4.81395,-2.40994 6.13485,-3.44897 2.92254,-2.29887 14.28346,-2.5465 23.63194,-0.5151 6.37994,1.38634 16.87724,5.80929 17.96506,7.56943 0.35914,0.58109 1.52642,1.05653 2.59396,1.05653 1.06754,0 1.94098,0.65917 1.94098,1.46482 0,0.80565 0.84064,1.91471 1.8681,2.46459 1.28634,0.68843 1.72374,1.75492 1.40454,3.42468 -0.25495,1.3337 0.22112,3.48714 1.05793,4.78541 0.83681,1.29828 1.83676,4.1605 2.22212,6.3605 0.38535,2.2 1.39003,4.78933 2.23264,5.75406 1.24917,1.43024 1.3138,2.23295 0.35009,4.34807 -0.69122,1.51706 -1.74071,2.37958 -2.52786,2.07752 -1.02082,-0.39173 -1.35752,0.77036 -1.39383,4.81054 -0.0279,3.10508 -0.70959,6.33695 -1.63431,7.74825 -0.87254,1.33167 -1.33028,2.67737 -1.0172,2.99044 0.86093,0.86094 -1.40722,8.62199 -4.22124,14.44406 -1.37515,2.84512 -2.35194,6.22012 -2.17063,7.5 0.28681,2.02464 0.9408,2.35303 5.03222,2.52686 4.95788,0.21064 10.79743,2.60806 10.79743,4.43287 0,0.63179 -0.72751,0.78815 -1.75,0.37614 -1.36733,-0.55097 -12.22136,-2.30302 -15.33948,-2.47609 -2.21187,-0.12277 -4.14257,-13.03272 -1.94906,-13.03272 0.90437,0 3.47573,-7.32589 3.33447,-9.5 -0.31439,-4.83873 -2.93588,-6.84369 -5.27033,-4.03085 -0.98214,1.18341 -0.81146,1.98763 0.87756,4.13486 2.6076,3.31503 2.65141,5.02883 0.16258,6.36081 -2.85753,1.5293 -4.41464,1.28763 -8.18379,-1.27018 -2.43433,-1.65198 -4.90724,-2.32815 -8.72529,-2.38574 -2.93048,-0.0442 -5.82956,-0.5818 -6.4424,-1.19464 -0.61284,-0.61284 -1.94009,-1.11426 -2.94944,-1.11426 -1.50617,0 -1.64911,0.34769 -0.7973,1.93931 1.26203,2.35812 0.65381,2.78464 -5.07964,3.5622 -4.88566,0.66257 -10.40609,-0.85401 -9.3469,-2.56781 0.36373,-0.58853 1.2903,-0.82868 2.05906,-0.53369 0.76875,0.295 2.35868,0.18089 3.53317,-0.25358 2.1011,-0.77725 2.09148,-0.82453 -0.59824,-2.94026 -2.37009,-1.86432 -2.92382,-1.96018 -4.16326,-0.72073 -1.82195,1.82194 -4.37171,0.88062 -4.37171,-1.61396 0,-1.053 -1.5216,-5.84235 -3.38133,-10.64301 -5.05852,-13.05791 -5.09388,-13.22847 -2.74276,-13.22847 1.10587,0 2.71971,1.0125 3.5863,2.25 1.17639,1.6799 2.60345,2.26596 5.63212,2.313 4.28856,0.0666 5.86434,1.42919 5.89036,5.09338 0.0118,1.65712 0.47576,2.03597 2.00406,1.63631 1.09382,-0.28604 1.73008,-0.93862 1.41391,-1.45018 -0.31616,-0.51157 -0.0354,-1.58008 0.62387,-2.37448 1.21757,-1.46708 1.08236,-1.57511 -3.81327,-3.04668 -0.94575,-0.28428 -1.11036,-1.71636 -0.62117,-5.40406 0.36607,-2.75951 0.36025,-5.01729 -0.0129,-5.01729 -0.37317,0 -2.11675,0.74376 -3.87463,1.65279 -4.39278,2.27159 -9.40976,1.93281 -11.60968,-0.78397 -2.28132,-2.81731 -4.36802,-1.71749 -3.09486,1.63118 0.60303,1.58609 0.56164,2.65288 -0.11924,3.07369 -0.57355,0.35448 -0.7797,1.69283 -0.45812,2.97412 0.32159,1.28129 0.1,2.62918 -0.49241,2.99531 -0.67668,0.41821 -0.30628,1.20561 0.99633,2.11799 1.28967,0.90332 2.07344,2.55158 2.07344,4.36041 0,1.90732 0.70475,3.28528 2.04787,4.0041 3.1662,1.6945 4.18493,5.48146 2.53612,9.42762 -1.39383,3.33589 -1.37672,3.3786 2.65004,6.61459 l 4.05293,3.25702 11.35616,-0.22693 c 11.33293,-0.22647 11.35565,-0.2222 11.10652,2.08757 -0.23074,2.13924 0.19884,2.35237 5.67251,2.81451 7.37509,0.62267 9.03561,3 2.09544,3 -4.90434,0 -8.94461,1.50005 -8.02929,2.98107 0.29938,0.48441 0.087,1.16339 -0.47199,1.50885 -0.55897,0.34546 -1.01631,1.00341 -1.01631,1.46211 0,1.93772 3.6131,1.91931 10.10147,-0.0515 6.74774,-2.04956 9.89853,-2.0279 9.89853,0.0681 0,0.56726 -0.5457,1.03138 -1.21266,1.03138 -0.66697,0 -4.90392,1.82856 -9.41545,4.06346 l -8.20278,4.06346 -3.83455,-1.95204 c -2.10901,-1.07363 -5.74706,-2.52342 -8.08456,-3.22175 -4.28531,-1.28025 -5.18416,-2.61897 -3.13459,-4.66854 0.82055,-0.82055 0.39264,-2.06301 -1.61869,-4.7 -1.50377,-1.97153 -2.86117,-3.5846 -3.01645,-3.5846 -0.15529,0 -0.23627,1.62514 -0.17997,3.61143 0.0837,2.95276 -0.5271,4.14259 -3.34897,6.52374 -5.82829,4.91801 -8.48405,5.62669 -17.7059,4.72476 -9.54417,-0.93347 -25.44902,-4.57128 -26.34839,-6.02649 -0.33774,-0.54648 -1.87674,-0.84506 -3.42,-0.66352 -2.70975,0.31877 -2.50154,0.63 6.07447,9.08008 4.88421,4.8125 9.37693,8.75 9.98382,8.75 1.24388,0 9.5692,6.08872 13.989,10.23086 2.30453,2.15974 2.65691,2.98788 1.68498,3.95981 -0.97194,0.97194 -1.8543,0.85955 -4.21914,-0.53739 C 266.45412,590.51736 266,590.47654 266,591.74663 c 0,0.82363 0.45,1.77563 1,2.11555 0.55,0.33992 1,1.26648 1,2.05902 0,3.27222 -4.43623,0.97977 -12.84838,-6.63949 z m 72.20205,-50.60654 c 0.37786,-0.37785 -0.95747,-2.3711 -2.96739,-4.42945 -2.50335,-2.56366 -3.44812,-4.28001 -2.99949,-5.44911 0.61449,-1.60135 0.77456,-1.59838 2.59376,0.048 1.39221,1.25993 2.72557,1.556 4.72916,1.05011 l 2.79029,-0.70454 -2.75,-1.44592 c -3.38675,-1.78072 -3.71234,-6.29152 -0.79899,-11.06952 1.40389,-2.30242 1.78045,-4.19249 1.35618,-6.80699 -0.50442,-3.10836 -0.28673,-3.69813 1.54147,-4.17622 1.17087,-0.30618 1.88235,-0.95554 1.58108,-1.44301 -0.87381,-1.41385 -3.14233,-1.03086 -5.02085,0.84766 -0.95368,0.95368 -2.44832,1.74118 -3.32143,1.75 -2.11169,0.0213 -2.45255,3.1757 -1.2074,11.17353 0.96707,6.21166 0.89974,6.70023 -1.15237,8.36192 -1.1987,0.97065 -2.19031,2.78639 -2.20357,4.03499 -0.0133,1.24859 -0.58662,2.45964 -1.27412,2.69121 -0.78608,0.26478 -1.25,-0.53773 -1.25,-2.16229 0,-2.98879 0.2191,-2.90427 -3.85078,-1.4855 -2.96211,1.03256 -4.34664,2.90214 -2.14922,2.90214 0.55,0 1.00351,0.5625 1.0078,1.25 0.0119,1.90721 4.31765,3.57807 6.18507,2.40014 1.14647,-0.72318 2.29986,-0.40772 4.32042,1.18166 2.9465,2.31771 3.75612,2.56546 4.84038,1.48119 z m -23.53353,-11.06746 c 0.41942,-2.95369 -2.46105,-4.11887 -4.22358,-1.70848 -0.91999,1.25818 -1.86869,1.55049 -3.20195,0.98659 -3.82644,-1.6184 -5.39461,-1.28834 -5.39461,1.13541 0,2.21092 0.30621,2.31297 6.25,2.08288 5.63746,-0.21822 6.28138,-0.46288 6.57014,-2.4964 z m 28.85419,-5.69748 c -1.19588,-1.34857 -2.32928,-2.00872 -2.51866,-1.46701 -0.65132,1.86307 0.78466,3.91896 2.73728,3.91896 1.88151,0 1.87322,-0.093 -0.21862,-2.45195 z m 8.26516,-4.15315 c 2.00392,-2.11158 2.22581,-2.86733 1.24274,-4.23272 -0.65821,-0.9142 -1.71571,-2.67468 -2.35,-3.91218 -0.69481,-1.35557 -2.07569,-2.25 -3.47369,-2.25 -2.99005,0 -3.88741,3.32221 -2.3947,8.86571 1.31576,4.88635 3.36361,5.33528 6.97565,1.52919 z M 283.45953,498.6224 c 3.07588,-3.3172 3.1849,-4.26022 0.4925,-4.26022 -1.87715,0 -6.84617,4.48764 -6.92043,6.25 -0.0761,1.80597 4.1098,0.51022 6.42793,-1.98978 z m 13.02023,-8.24342 c 0.78795,-0.65394 1.90234,-0.89868 2.47644,-0.54387 0.57409,0.35481 1.0438,0.1951 1.0438,-0.3549 0,-1.6427 -2.09197,-2.42606 -3.28713,-1.2309 -0.61208,0.61208 -3.02131,1.11287 -5.35385,1.11287 -3.82891,0 -6.03828,0.9874 -4.85563,2.17005 0.89459,0.8946 8.57925,0.006 9.97637,-1.15325 z m 159.1198,96.58435 c 0.78213,-2.03821 -0.98454,-2.76523 -8.80586,-3.6238 -7.68859,-0.84399 -9.31051,-1.77366 -8.35372,-4.78826 0.48417,-1.52548 1.86494,-2.18089 5.70814,-2.70946 4.09013,-0.56254 5.83615,-1.4639 9.038,-4.66575 5.01415,-5.01415 6.76387,-4.54977 6.06947,1.61085 l -0.51569,4.57527 3.5076,0 c 1.92919,0 4.06781,0.675 4.7525,1.5 1.88024,2.26555 6,1.9464 6,-0.46482 0,-2.46611 2.97593,-4.12945 9.93895,-5.5552 7.72115,-1.58098 7.79875,-3.44789 0.11439,-2.7511 C 477.5605,570.58913 477,570.46221 477,568.72031 c 0,-2.12532 2.10853,-3.14759 14.0643,-6.81875 8.3597,-2.56695 17.2962,-3.59744 17.6857,-2.03938 0.2718,1.08717 -2.1535,1.98556 -8,2.96342 -6.3278,1.05835 -4.1567,2.09435 3,1.43156 7.4795,-0.69269 11.1569,-1.73274 15.9937,-4.52346 3.8267,-2.20794 4.0719,-3.09068 1.0063,-3.62345 -2.1015,-0.36522 -2.052,-0.47422 0.75,-1.65187 1.65,-0.69347 5.3184,-1.64304 8.152,-2.11015 5.2316,-0.86242 19.348,-6.71818 19.348,-8.02595 0,-1.87197 -3.1995,-3.14525 -6.3964,-2.54551 -2.316,0.43447 -3.5516,0.24141 -3.8316,-0.59867 -0.327,-0.98102 -1.2581,-0.98685 -4.4587,-0.0279 -6.8622,2.05597 -8.1802,1.31677 -2.8133,-1.57789 l 5,-2.69678 -3.5,-0.34602 c -3.1199,-0.30844 -14.713,1.09954 -20.75,2.52008 -1.2375,0.2912 -2.25,0.10607 -2.25,-0.41139 0,-0.95893 25.3126,-9.27602 28.2309,-9.27602 0.8813,0 1.7902,0.5625 2.0196,1.25 0.3302,0.98941 1.4421,0.96267 5.3333,-0.12824 2.7039,-0.75803 7.3734,-1.79161 10.3766,-2.29686 5.0484,-0.84932 5.5883,-0.74889 7.1574,1.33128 1.4059,1.86379 2.6998,2.26243 7.5397,2.32291 3.2134,0.0401 8.0925,-0.52803 10.8425,-1.26264 2.9137,-0.77832 7.1656,-1.10144 10.19,-0.77437 5.3559,0.57922 7.3163,-0.36207 4.9111,-2.35814 -0.9636,-0.79973 -2.686,-0.86372 -5.7389,-0.21323 C 579.7208,529.6068 569,529.67921 569,527.38055 c 0,-1.54086 6.2822,-3.01833 12.8992,-3.03368 7.0636,-0.0164 9.8358,-0.98641 8.5882,-3.00507 -1.1771,-1.90465 -15.8564,-0.64343 -22.2744,1.91379 -5.8517,2.33158 -7.213,2.55426 -7.213,1.1799 0,-0.50968 2.5875,-2.16685 5.75,-3.6826 5.22,-2.50189 7.0174,-2.794 19.5,-3.16921 8.3993,-0.25246 13.75,-0.80977 13.75,-1.43216 0,-0.66313 -4.8007,-0.86968 -13.75,-0.59158 -12.709,0.39493 -14.1184,0.63414 -18.6157,3.15953 -2.6761,1.50274 -5.3145,2.58266 -5.863,2.39982 -1.0534,-0.35115 10.7522,-11.75711 12.1691,-11.75711 0.4545,0 1.071,0.9356 1.37,2.07911 0.3909,1.49453 1.1969,1.98657 2.8667,1.75 2.9169,-0.41327 3.794,-4.64583 1.3353,-6.44371 -1.5467,-1.13093 -1.5207,-1.31059 0.3326,-2.30244 3.6893,-1.97445 5.419,-0.32926 4.6994,4.46966 l -0.64,4.26789 10.9538,0.33974 c 10.4645,0.32457 11.0677,0.46261 13.5001,3.08975 1.4004,1.5125 3.048,2.75 3.6613,2.75 1.7735,0 0.086,4.18209 -2.949,7.30867 -1.4995,1.54478 -4.4913,3.40207 -6.6485,4.12732 -2.1572,0.72525 -4.3203,2.16703 -4.807,3.20395 -0.7747,1.65044 -1.8024,1.83897 -8.25,1.51338 -7.6215,-0.38487 -9.215,0.5187 -4.9449,2.80396 1.5203,0.81364 3.7512,1.04554 6,0.62367 1.9689,-0.36937 3.5798,-0.44202 3.5798,-0.16145 0,2.00986 -11.3663,4.66228 -34.3562,8.0173 -7.356,1.07351 -10.7941,2.08835 -13.5537,4.00078 -2.0337,1.40933 -4.0809,2.56242 -4.5495,2.56242 -0.4685,0 -2.44,1.2375 -4.3812,2.75 -9.6945,7.55382 -36.8133,21.05522 -49.6594,24.72354 -3.3,0.94234 -7.50124,2.57898 -9.33609,3.63697 -2.65828,1.5328 -15.17619,3.69838 -22.38253,3.87216 -0.39523,0.01 -0.47706,-0.61215 -0.18182,-1.38152 z M 557.2141,539.35649 c 0.5587,-3.80624 0.3348,-3.99431 -4.7558,-3.99431 -6.3821,0 -10.4258,1.0708 -11.4796,3.03989 -0.8634,1.61317 -0.681,1.67403 1.9923,0.66495 2.4363,-0.91961 3.7675,-0.74881 7.7359,0.99253 6.2495,2.74233 5.9976,2.76955 6.5072,-0.70306 z m 23.3214,-2.79219 c -0.3578,-0.35773 -2.7621,-0.70134 -5.343,-0.76358 -2.5809,-0.0622 -6.155,-0.46763 -7.9425,-0.90085 -2.5742,-0.62389 -3.25,-0.47524 -3.25,0.71487 0,2.57484 2.7732,4.04593 6.4901,3.44275 1.9103,-0.30999 3.732,-0.1449 4.0483,0.36687 0.3297,0.53333 1.871,0.26035 3.6113,-0.63958 1.6699,-0.86354 2.7435,-1.86276 2.3858,-2.22048 z m 25.9016,-10.13257 c 1.6828,-1.85952 1.6609,-1.91137 -0.595,-1.41109 -4.2867,0.9506 -4.9737,1.31958 -4.3465,2.33448 0.9725,1.57343 3.0298,1.18899 4.9415,-0.92339 z m -1.408,-4.31955 2.1071,-2.25 -3.7228,-0.31959 c -7.3927,-0.63463 -11.3257,2.26941 -5.3393,3.94233 4.0115,1.12098 4.7577,0.9737 6.955,-1.37274 z m -195.37814,56.49425 c -0.53881,-0.8718 3.24777,-4.24696 7.80706,-6.95881 2.47379,-1.47141 18.16725,-1.70078 19.04635,-0.27838 0.34231,0.55389 -0.19363,1.27024 -1.19099,1.5919 -0.99736,0.32166 -4.28838,1.62588 -7.31338,2.89826 -6.01111,2.52841 -17.42782,4.23761 -18.34904,2.74703 z M 421,567.09095 c 0,-1.23833 1.44123,-1.53856 7.5,-1.56232 4.125,-0.0162 7.5,0.38975 7.5,0.90207 0,0.51231 -1.6875,0.93643 -3.75,0.94249 -2.0625,0.006 -5.4375,0.28993 -7.5,0.63084 -2.97202,0.49124 -3.75,0.30181 -3.75,-0.91308 z m -52.18097,-0.24307 c -0.22939,-0.22939 -3.24032,-0.52857 -6.69096,-0.66485 -3.45064,-0.13627 -6.44566,-0.5257 -6.6556,-0.8654 -0.61037,-0.9876 11.4283,-4.82298 18.52753,-5.90265 12.48428,-1.89865 22.59637,-1.93446 31.00444,-0.10979 8.8089,1.91165 12.11977,3.70095 4.99556,2.69976 -13.11381,-1.84292 -19.63738,-1.89021 -25.53996,-0.18514 -3.27802,0.94692 -6.63504,2.29456 -7.46004,2.99476 -1.54425,1.31064 -7.43863,2.77564 -8.18097,2.03331 z M 455.25,563.2434 c -1.7875,-0.51612 -3.25,-1.55315 -3.25,-2.3045 0,-1.05936 -0.83196,-1.17846 -3.70527,-0.53042 -6.97078,1.57216 -21.65238,2.34141 -20.88149,1.09409 0.38763,-0.62722 1.79488,-1.14039 3.12722,-1.14039 4.03522,0 16.64629,-2.12992 21.92864,-3.7036 2.73301,-0.8142 7.23301,-2.97617 10,-4.80438 7.1147,-4.70085 24.6885,-10.05328 39.4088,-12.00268 3.845,-0.5092 5.1821,-0.39541 4.691,0.39923 -0.3778,0.61129 -1.4884,1.11143 -2.468,1.11143 -2.2675,0 -14.8056,3.19866 -22.71185,5.79415 -5.48218,1.7997 -14.11616,5.54353 -23.1998,10.05979 -8.52777,4.23989 4.68777,1.27784 23.79062,-5.33228 14.25283,-4.93187 30.69163,-7.0352 28.60563,-3.66008 -0.2976,0.48165 -2.3031,1.15746 -4.4566,1.50182 -3.3338,0.53309 -16.5561,4.75654 -40.03413,12.78764 -5.98871,2.04855 -6.22396,2.06439 -10.84477,0.73018 z m -275.32997,-3.86617 c -0.86898,-0.50827 -3.30772,-1.10137 -5.4194,-1.318 -4.07501,-0.41805 -6.24661,-2.04003 -10.87275,-8.12097 -1.57967,-2.07643 -4.05557,-4.293 -5.502,-4.9257 C 153.8956,543.16212 143,536.15081 143,535.27906 c 0,-1.93622 2.54213,-1.94599 8.79164,-0.0338 3.6896,1.12891 8.37199,3.19205 10.40531,4.58475 2.03332,1.3927 4.08647,2.53218 4.56257,2.53218 1.85388,-1e-5 16.24048,14.24751 16.24048,16.08348 0,2.11113 -0.70085,2.32311 -3.07997,0.93156 z m -48.07065,-24.77031 c -1.45784,-0.95961 -4.15784,-2.91821 -6,-4.35245 -1.84216,-1.43425 -6.83688,-3.85702 -11.09938,-5.38395 -4.2625,-1.52693 -7.75,-3.16596 -7.75,-3.64229 0,-1.23355 0.19275,-1.19445 10.99713,2.2306 8.55725,2.71269 10.36727,3.70461 14.59806,8 4.79848,4.87172 4.40378,6.53773 -0.74581,3.14809 z M 135.5,524.7474 c -3.3,-1.34093 -8.475,-3.07385 -11.5,-3.85093 -9.69738,-2.49114 -18.55554,-5.38961 -16.69584,-5.46305 2.15913,-0.0853 18.7052,4.48801 23.52758,6.50292 1.87688,0.78421 4.02168,1.42584 4.76621,1.42584 0.74454,0 2.82709,0.89832 4.62788,1.99626 4.27976,2.60937 2.69538,2.40452 -4.72583,-0.61104 z m -34.76903,-10.04116 c 0.67703,-0.27392 2.02703,-0.29059 3,-0.0371 0.97297,0.25354 0.41903,0.47766 -1.23097,0.49804 -1.65,0.0204 -2.44606,-0.18706 -1.76903,-0.46099 z m -67.9406,-7.88702 c -0.29862,-0.29863 -0.38974,-10.24752 -0.20248,-22.10866 0.38667,-24.49135 -0.47909,-21.77359 10.72686,-33.67332 12.89713,-13.69562 23.69515,-16.45829 26.01223,-6.65522 1.04086,4.40366 -3.5184,13.498 -12.21623,24.36766 C 55.39984,470.88781 54,472.73426 54,472.85289 c 0,0.11864 2.24268,2.1e-4 4.98374,-0.26317 9.63527,-0.92583 12.83993,4.60507 7.1687,12.37242 -6.33352,8.67444 -17.32595,17.16456 -26.63832,20.5744 -5.4494,1.99536 -5.92108,2.08534 -6.72375,1.28268 z M 46.5,495.6079 c 8.01856,-5.50418 15.5,-12.73478 15.5,-14.98031 0,-1.25109 -0.90011,-1.40367 -5.04046,-0.85443 -2.77226,0.36775 -6.5356,1.50841 -8.363,2.5348 C 40.81106,486.6808 41,486.42475 41,492.60273 c 0,3.1677 0.3375,5.75752 0.75,5.75517 0.4125,-0.002 2.55,-1.23986 4.75,-2.75 z m -1.25639,-21.49572 c 1.67532,-1.7875 4.77088,-5.57977 6.87903,-8.42727 2.10815,-2.8475 4.26455,-5.44399 4.79201,-5.76998 C 58.20662,459.11645 63,448.88369 63,446.92411 c 0,-3.6596 -8.04855,-0.33475 -14.29975,5.90721 C 41.11085,460.40949 41,460.64763 41,469.37361 c 0,4.39371 0.26946,7.98857 0.59879,7.98857 0.32934,0 1.96951,-1.4625 3.64482,-3.25 z m 559.39859,27.62153 c -1.5718,-0.85162 -3.7194,-1.3231 -4.7723,-1.04775 -1.053,0.27536 -3.2545,-0.1678 -4.8922,-0.9848 L 592,498.2157 l 0,-23.92676 c 0,-13.15972 0.3587,-23.92676 0.7971,-23.92676 0.4383,0 2.4964,1.74039 4.5736,3.86754 l 3.7765,3.86754 -0.7028,7.13246 c -0.4692,4.76199 -0.3538,7.13246 0.3474,7.13246 2.0226,0 10.4687,9.4419 12.3296,13.78328 3.5018,8.16929 1.6855,17.27003 -3.4281,17.17668 -1.2063,-0.022 -3.4793,-0.73681 -5.0511,-1.58843 z m 2.1578,-5.57153 c 2.6935,-2.69354 0.6202,-15.96956 -2.778,-17.78823 -3.4083,-1.82405 -3.8343,-1.10955 -4.5644,7.655 -0.6439,7.72967 -0.5248,8.81093 1.1014,10 2.2633,1.65497 4.6679,1.70631 6.241,0.13323 z m -30.8644,-9.16225 c -2.2565,-0.80683 -4.0974,-0.93826 -5.017,-0.35818 -0.9313,0.58746 -2.6648,0.42169 -4.8302,-0.4619 l -3.3776,-1.3782 0.1774,-27.96973 c 0.124,-19.55096 0.5042,-27.8826 1.2631,-27.68023 1.9273,0.51391 7.8456,5.41242 7.9488,6.57918 0.055,0.62222 0.018,4.80183 -0.082,9.28802 -0.1726,7.74854 -0.065,8.19191 2.1499,8.86031 3.5245,1.06359 8.7277,6.43959 11.1138,11.48298 2.9093,6.14913 3.0841,17.82578 0.3128,20.89216 -2.1637,2.39408 -4.5367,2.57724 -9.6594,0.74559 z m 2.8978,-6.38775 c 0.497,-0.9625 0.9496,-5.47581 1.0056,-10.02957 0.086,-6.98912 -0.2053,-8.58669 -1.8686,-10.25 -2.263,-2.26304 -4.2861,-2.51742 -5.7296,-0.72043 -1.0987,1.36774 -1.7376,20.13712 -0.7404,21.75065 1.0473,1.69452 6.3506,1.15164 7.333,-0.75065 z m -501.93832,5.08575 c -2.54718,-0.67693 -4.20725,-7.34761 -3.60229,-14.4751 0.68483,-8.06841 3.92279,-19.33639 6.31659,-21.98152 2.14068,-2.36542 9.42062,-5.87913 12.18077,-5.87913 3.17196,0 5.20985,3.23479 5.20985,8.26972 0,2.53674 0.45,4.89036 1,5.23028 1.45769,0.9009 1.22581,3.74008 -0.60523,7.41048 -1.07884,2.1626 -3.12834,3.89539 -6.25,5.2842 -8.22186,3.65788 -9.63864,4.62246 -9.97153,6.78887 -0.435,2.83088 1.43895,4.93062 3.84003,4.30273 1.06685,-0.27899 4.20717,-2.73921 6.97849,-5.46715 4.87366,-4.7974 7.84626,-5.80946 8.78478,-2.9909 0.8031,2.41185 -8.17237,9.61617 -14.43997,11.5905 -7.72784,2.43431 -7.59587,2.40751 -9.44149,1.91702 z m 10.12636,-18.96864 c 3.9215,-2.59512 3.97834,-2.72061 3.96325,-8.75 -0.0178,-7.12384 -0.91439,-9.09159 -3.73453,-8.19651 -2.3764,0.75424 -4.89189,6.92938 -5.83718,14.3294 -0.78556,6.14963 -0.16624,6.43863 5.60846,2.61711 z M 124.25,483.21954 c -2.57998,-2.59517 -1.41059,-7.15011 3.05836,-11.91272 4.14284,-4.41509 4.21432,-4.60189 2.32114,-6.06616 -1.71457,-1.32612 -1.81185,-1.91663 -0.79584,-4.83115 0.63661,-1.8262 1.94698,-3.91167 2.91191,-4.63436 1.65105,-1.23657 1.62708,-1.40498 -0.40674,-2.85797 -2.87117,-2.0512 -3.73696,-7.7658 -2.37556,-15.67969 2.13984,-12.43903 6.84821,-19.87531 12.58427,-19.87531 3.30611,0 8.37068,-2.9469 13.78274,-8.01972 3.7387,-3.50434 4.75698,-3.64633 7.15408,-0.99756 1.74785,1.93135 1.66181,2.1091 -3.32113,6.8616 l -5.11546,4.87889 1.97611,4.09009 c 2.10503,4.3569 2.63178,10.66345 0.97612,11.6867 -0.55,0.33992 -1,2.15857 -1,4.04146 0,3.67417 -3.269,7.56235 -13.52869,16.09115 -2.73422,2.27293 -4.68054,4.4387 -4.32514,4.81283 0.35539,0.37412 3.49753,0.16317 6.98253,-0.46878 13.35639,-2.42197 22.8713,1.30442 22.8713,8.95725 0,4.19595 -0.94077,5.2583 -8.5,9.59847 -5.82709,3.34565 -11.38494,4.50981 -24.5,5.1318 -6.815,0.3232 -9.85329,0.0952 -10.75,-0.80682 z m 22.6725,-5.39775 c 16.19437,-5.65798 16.252,-9.59297 0.16238,-11.08834 -6.79081,-0.63114 -6.79178,-0.63086 -10.95128,3.12699 -4.11503,3.71768 -5.93404,7.39758 -4.66873,9.4449 1.12024,1.81259 7.88037,1.16378 15.45763,-1.48355 z m -0.37705,-30.91416 C 148.79232,444.66077 149,443.68218 149,435.34189 c 0,-9.75573 -0.97372,-12.97971 -3.92018,-12.97971 -2.45081,0 -7.63154,10.1052 -8.53005,16.63815 -0.95101,6.91464 0.53639,10.36185 4.47093,10.36185 1.92639,0 3.98466,-0.91445 5.52475,-2.45455 z m 404.75585,35.74579 c -2.1418,-1.07503 -3.2983,-2.45053 -3.5,-4.16282 -0.2323,-1.97195 -1.0264,-2.70435 -3.4693,-3.19979 -4.5418,-0.9211 -11.8562,-5.45174 -14.2667,-8.83686 C 528.1777,463.803 528,462.12555 528,446.95781 c 0,-18.5493 -0.122,-18.29196 7,-14.76754 2.702,1.3371 3.4608,2.29522 3.328,4.20197 -0.095,1.35847 -0.4973,8.36725 -0.8949,15.57508 -0.6929,12.5624 -0.634,13.19397 1.422,15.25 2.1578,2.15771 4.6351,2.66145 7.5631,1.53787 1.341,-0.51459 1.5818,-2.79795 1.5818,-15 0,-7.91615 0.3762,-14.39301 0.8359,-14.39301 1.2071,0 10.1641,7.11578 10.1641,8.07476 0,0.44396 -0.4763,1.10157 -1.0584,1.46136 -0.6906,0.4268 -0.9912,6.6162 -0.8648,17.80901 0.2133,18.89174 0.1948,18.94282 -5.7755,15.94611 z m -447.80066,-9.54124 c 0.40364,-1.2375 0.95411,-10.659 1.22326,-20.93666 l 0.48936,-18.68666 3.2945,-1.56334 c 1.81197,-0.85984 4.45285,-1.56334 5.86862,-1.56334 2.33253,0 2.48491,0.23464 1.62362,2.5 -0.80652,2.12132 -0.66358,2.5 0.94371,2.5 2.44715,0 8.04176,3.18004 8.04997,4.57569 0.008,1.38774 -4.27706,5.42431 -5.75844,5.42431 -0.62472,0 -1.54621,-0.73325 -2.04774,-1.62943 -0.76282,-1.3631 -1.19074,-1.07705 -2.61794,1.75 -1.38461,2.74269 -1.65082,5.63723 -1.41285,15.36238 0.29057,11.87526 0.27096,11.99421 -2.18175,13.23526 -1.36123,0.68877 -3.76494,1.25894 -5.34159,1.26705 -2.52578,0.013 -2.77937,-0.25279 -2.13273,-2.23526 z m 306.03358,-0.69463 c -0.35874,-0.58045 -1.95986,-1.05537 -3.55805,-1.05537 -4.99781,0 -5.1551,-1.29381 -3.92088,-32.25059 0.61945,-15.53717 0.97292,-34.32441 0.78549,-41.74941 l -0.34078,-13.5 4.69258,-0.30245 c 4.13854,-0.26673 4.89764,0.0105 6.42929,2.3481 1.3944,2.12812 1.50426,3.02273 0.55741,4.53888 -0.6486,1.03858 -1.17928,3.01944 -1.17928,4.4019 0,1.93349 0.51925,2.51864 2.25,2.53553 3.84697,0.0376 10.36655,3.60642 13.00528,7.11919 4.65584,6.19804 6.24438,22.10132 3.12275,31.26279 -1.16469,3.41818 -2.7576,5.58287 -5.65004,7.67814 -4.47299,3.24022 -7.37828,3.64966 -10.28686,1.44972 -2.97009,-2.24646 -3.71566,-1.83387 -3.10485,1.7182 0.30738,1.7875 0.68989,8.41981 0.85002,14.73848 0.25374,10.01223 0.0797,11.52919 -1.35434,11.80536 -0.90502,0.1743 -1.939,-0.15802 -2.29774,-0.73847 z m 9.98613,-34.82068 C 422.08491,435.75031 423,430.73212 423,418.51513 c 0,-13.99211 -0.42454,-15.15295 -5.54171,-15.15295 -2.76724,0 -3.27348,0.44698 -4.24714,3.75 -1.39493,4.73212 -2.69903,25.16998 -1.82759,28.64207 0.53764,2.14215 1.2316,2.60519 3.88549,2.59262 1.77702,-0.008 3.69011,-0.34593 4.2513,-0.75 z m 93.62875,28.54005 c -3.9514,-1.76045 -4.2872,-2.18344 -3.656,-4.60659 0.3822,-1.46748 0.9232,-15.60565 1.2022,-31.41815 0.279,-15.8125 0.728,-28.75 0.9978,-28.75 0.2698,0 1.6867,0.91931 3.1487,2.04292 1.462,1.12361 3.6842,2.81111 4.9381,3.75 2.1366,1.59974 2.2152,2.04577 1.25,7.09357 -0.5664,2.96257 -1.0299,15.84497 -1.0299,28.62756 0,17.40403 -0.3139,23.48695 -1.25,24.2201 -0.8486,0.66465 -2.6472,0.35656 -5.6009,-0.95941 z m -13.7632,-4.82768 c -2.9567,-1.09378 -9.1967,-7.89929 -12.1004,-13.19706 -1.43182,-2.6125 -3.04231,-4.75 -3.5788,-4.75 -0.58707,0 -0.77949,2.73858 -0.48329,6.87844 0.62849,8.78395 -0.0268,10.00397 -4.93821,9.19366 l -3.7852,-0.62451 0.35934,-15.97379 c 0.19764,-8.78559 0.34251,-17.0988 0.32194,-18.4738 -0.0206,-1.375 -0.062,-6.775 -0.0921,-12 -0.0301,-5.225 -0.51279,-13.07718 -1.07266,-17.44928 -0.63178,-4.93368 -0.66308,-8.30414 -0.0825,-8.88471 0.91181,-0.91181 8.27386,1.44471 10.65233,3.40972 0.71341,0.58939 0.8361,2.87595 0.35741,6.66087 -0.4009,3.16987 -1.00708,11.45792 -1.34706,18.41789 l -0.61814,12.6545 7.17974,-7.4045 c 3.9488,-4.07247 7.7715,-7.40449 8.4949,-7.40449 0.7234,0 2.7328,1.2666 4.4654,2.81467 l 3.1502,2.81466 -4.0255,2.96036 c -2.214,1.6282 -5.6839,4.94532 -7.7108,7.37138 -3.1964,3.82582 -3.5992,4.86964 -3.0368,7.86794 0.9334,4.97532 6.2795,13.98207 11.2622,18.97373 2.3622,2.3665 4.0647,4.67527 3.7833,5.1306 -0.7632,1.23481 -4.953,1.82841 -7.1553,1.01372 z m -330.36237,-5.41871 c -1.36828,-1.64867 -2.97472,-7.143 -3.72823,-12.75126 -0.532,-3.95956 2.25912,-22.51028 3.64793,-24.24536 0.45421,-0.56745 1.12613,-2.43772 1.49317,-4.15615 1.07904,-5.05192 4.20499,-7.18069 11.66696,-7.94519 l 6.58642,-0.6748 2.40511,3.37221 c 2.1492,3.01339 2.44236,4.6253 2.75524,15.14909 0.38264,12.8704 -0.20796,14.71335 -4.72257,14.73669 -1.44516,0.007 -5.32603,0.82131 -8.62415,1.80852 -6.52533,1.95319 -7.22518,3.19446 -4.75175,8.4279 1.95727,4.14133 6.0184,3.70923 11.74834,-1.25 6.98282,-6.04358 13.71923,-5.01964 7.85924,1.19461 -5.74919,6.09676 -9.6275,7.80539 -17.71692,7.80539 -5.29221,0 -7.74502,-0.41881 -8.61879,-1.47165 z m 11.1103,-19.82455 c 5.93514,-2.0679 6.86617,-3.34026 6.86617,-9.38343 0,-2.9891 -0.50934,-7.45752 -1.13188,-9.92982 -0.9021,-3.58259 -1.52366,-4.43373 -3.06188,-4.19282 -3.3079,0.51807 -8.80624,13.89023 -8.80624,21.4171 0,3.7647 0.66968,3.99277 6.13383,2.08897 z M 450.74472,454.431 c -3.7154,-1.00798 -7.47478,-2.42982 -8.35417,-3.15966 -3.10881,-2.58008 -4.45732,-7.69623 -5.11116,-19.39133 -0.44776,-8.00893 -0.13252,-9.73021 4.12393,-22.51783 2.124,-6.38113 2.23394,-6.50582 6.0119,-6.81822 2.11659,-0.17502 4.32904,0.16248 4.91656,0.75 0.58752,0.58752 2.07309,1.06822 3.30127,1.06822 3.88409,0 8.94199,7.44635 10.24433,15.08191 1.40386,8.23083 1.44174,16.4533 0.0874,18.98383 -1.2699,2.37283 -5.47356,2.51668 -12.37375,0.42344 C 447.01924,436.85772 447,436.86337 447,440.78545 c 0,2.25167 0.91488,4.51055 2.67314,6.60013 2.37607,2.82379 3.08912,3.11033 6.4162,2.5783 2.05869,-0.32919 5.09631,-1.37519 6.75026,-2.32443 2.87272,-1.64871 3.10006,-1.64185 5.0838,0.15341 2.70285,2.44605 2.65014,2.67933 -1.18023,5.22324 -4.73673,3.14586 -8.41806,3.47144 -15.99845,1.4149 z m 8.25373,-29.31882 c -0.002,-8.67509 -2.11015,-15.25 -4.89053,-15.25 -3.27872,0 -6.28735,6.88743 -7.80574,17.86905 -0.66108,4.78119 0.41843,5.59513 7.44782,5.61564 l 5.25,0.0153 -0.002,-8.25 z M 385,449.03264 c -3.09957,-1.07746 -3.4824,-1.59251 -3.34621,-4.50188 0.14942,-3.19176 0.0641,-3.26466 -3,-2.56228 -8.15608,1.86963 -15.30709,-1.25164 -19.46879,-8.49772 -1.64759,-2.8687 -1.38585,-43.02609 0.28186,-43.24288 2.47203,-0.32133 10.0905,0.37415 10.68047,0.97502 0.35603,0.3626 0.0128,7.63428 -0.76279,16.15928 -2.03364,22.35381 -0.69666,29.02867 5.50922,27.5046 1.43343,-0.35202 3.65274,-1.31722 4.93179,-2.14488 2.3221,-1.5026 2.32507,-1.53362 2,-20.90816 -0.36438,-21.7174 -0.562,-21.16255 6.67445,-18.73869 5.17402,1.73305 6.82566,3.82584 5.26816,6.67527 -1.52128,2.78314 -2.17482,29.79507 -0.97049,40.11186 1.24788,10.68988 0.1814,11.94411 -7.79767,9.17046 z m -183.32137,-1.42046 c -0.24168,-0.4125 -0.0156,-3.85378 0.50246,-7.64729 0.51803,-3.79351 0.80171,-14.93387 0.63039,-24.75635 L 202.5,397.34949 l 3.23265,-1.06548 c 1.77795,-0.58601 4.25295,-0.92039 5.5,-0.74305 1.88979,0.26875 2.22509,0.86353 2.01354,3.57183 -0.2586,3.31082 0.54237,4.06083 2.37722,2.22598 2.79091,-2.79091 13.32449,-3.2387 16.14482,-0.68634 3.36959,3.04944 4.23212,8.62938 4.22397,27.32577 l -0.008,17.88398 -2.69157,1.25 c -1.48036,0.6875 -3.72685,1.25 -4.99219,1.25 l -2.30044,0 0,-20.8 c 0,-21.26251 -0.33789,-23.24426 -3.95,-23.16673 -2.02202,0.0434 -5.40823,2.91055 -7.09583,6.00813 -2.7695,5.08341 -5.06622,27.24655 -3.03409,29.27868 1.80024,1.80024 1.27441,6.50546 -0.85434,7.64474 -2.23428,1.19575 -8.73788,1.39333 -9.38711,0.28518 z M 290.5,445.12488 c -9.50866,-1.82927 -18.28395,-4.7573 -18.87518,-6.29803 -0.32582,-0.84905 -0.0372,-2.45485 0.64139,-3.56844 1.04438,-1.71386 2.0014,-1.9548 6.23379,-1.56944 2.75,0.2504 7.46057,1.1793 10.46793,2.06424 6.17772,1.81783 17.18604,2.13212 20.09781,0.57379 1.08339,-0.57981 1.93426,-2.0857 1.93426,-3.42328 0,-2.45099 -3.91503,-7.92604 -7.48994,-10.47442 -1.10553,-0.78809 -5.98849,-5.28809 -10.85101,-10.00001 -12.31265,-11.93129 -16.6146,-19.62281 -16.64399,-29.75809 -0.008,-2.85504 0.43494,-5.4691 0.98494,-5.80902 0.55,-0.33992 1,-2.17258 1,-4.07259 0,-1.9 0.4221,-4.23594 0.93801,-5.19098 0.51591,-0.95504 2.06905,-4.21143 3.45144,-7.23643 4.18774,-9.16383 10.98184,-14.87633 15.99263,-13.44665 1.16486,0.33236 5.128,1.72268 8.80699,3.08961 7.53469,2.79951 9.97675,5.76288 12.39966,15.04667 2.00818,7.69467 2.88376,20.559 1.56678,23.01979 -1.74171,3.25443 -5.96713,3.81618 -8.78593,1.16805 C 310.21174,387.21247 310,386.19616 310,377.866 c 0,-8.70094 -1.76044,-17.06265 -4.26417,-20.25382 -2.92347,-3.72617 -9.35998,0.20538 -13.13634,8.02394 -3.1256,6.47122 -3.94186,9.83123 -3.94186,16.22606 0,6.86184 0.8808,9.94617 4.99754,17.5 4.49449,8.24698 4.97578,8.77501 16.07666,17.63784 12.63267,10.0858 15.90498,16.85037 11.28786,23.3345 -3.2042,4.49989 -7.71145,6.04598 -17.17082,5.88996 -4.59188,-0.0757 -10.59887,-0.57055 -13.34887,-1.0996 z m 43.40025,-5.5127 c -0.0549,-0.4125 -0.015,-10.7625 0.0885,-23 l 0.18833,-22.25 -2.38854,0 c -2.99915,0 -4.78854,-1.73938 -4.78854,-4.65469 0,-1.78505 0.72903,-2.39145 3.5,-2.91129 l 3.5,-0.6566 0,-9.51371 0,-9.51371 3.25,0.72093 c 1.7875,0.39651 4.31909,0.86935 5.62575,1.05075 3.71613,0.5159 4.52318,1.89518 3.24849,5.55178 C 345.50591,376.20938 345,379.39348 345,381.5114 l 0,3.85078 4.46482,0 c 4.69447,0 6.23977,1.39281 6.10218,5.5 -0.0577,1.72393 -0.8607,2.0414 -5.817,2.2999 l -5.75,0.29991 0,20.38499 c 0,11.21175 0.42431,21.50101 0.9429,22.86502 0.72813,1.91513 0.59561,2.61329 -0.58179,3.0651 -2.20816,0.84735 -10.34329,0.7191 -10.46086,-0.16492 z"
       id="path3035"
       inkscape:connector-curvature="0"
       inkscape:export-filename="C:\Users\PederHans\Google Drive\Stupeklubben\logo.png"
       inkscape:export-xdpi="90"
       inkscape:export-ydpi="90" />
  </g>
</svg>
