<svg version="1.1" id="Layer_1" xmlns="http://www.w3.org/2000/svg" xmlns:xlink="http://www.w3.org/1999/xlink" x="0px" y="0px" viewBox="0 0 228 65" style="enable-background:new 0 0 228 65;" xml:space="preserve" aria-labelledby="zanderkTitle" role="img">
	 <title id="zanderkTitle">Zander K Hotel - Moderne budsjetthotell i Bergen sentrum</title>
<g transform="translate(0 .6)">
	<path d="M179.1,47.9c0.3,0,0.4,0,0.4-0.2c0-0.2-0.2-0.2-0.5-0.2c-2-0.5-2.5-3-2.8-4c-0.4-2.2-1-4.9-4.9-4.8
		c1.1-1.4,2.3-2.6,3.6-3.8c1.9-1.7,2.4-1.8,3.7-2c0.3,0,0.3-0.1,0.3-0.3c0-0.1,0-0.2-0.1-0.2c-0.1,0-2.4-0.1-2.6-0.1l-2.8,0
		c-0.2,0-0.4,0-0.4,0.2c0,0.2,0.2,0.2,0.5,0.3c0.5,0.1,1.1,0.4,1.1,0.8c0,0.6-1.1,1.7-1.3,2c-3.1,3.4-3.1,3.4-4.5,4.3
		c0-0.8-0.1-5-0.1-5.9c0-0.2,0-1.1,0.6-1.2c1.1-0.1,1.2-0.1,1.2-0.3c0-0.2-0.1-0.2-0.3-0.2l-2.5,0c-1.1,0-2.2,0-2.6,0
		c-0.1,0-0.5,0-0.5,0.3c0,0.2,0.2,0.2,0.3,0.2c0.8,0.1,1.2,0.1,1.5,0.7c0.4,1,0.4,6.9,0.4,7.2c0,1.5-0.2,4.3-0.3,4.8
		c-0.1,1-0.1,1.6-1.4,1.8c-0.3,0-0.3,0.1-0.3,0.2c0,0.2,0.3,0.2,0.5,0.2c0.1,0,1.4-0.1,2.5-0.1c0.6,0,1.1,0,1.7,0l1.2,0
		c0.1,0,0.3,0,0.3-0.2c0-0.2-0.3-0.2-0.4-0.2c-1.8-0.2-1.8-1.1-1.8-3.1c0-1.6,0-3.2,0.1-3.5c0.1-0.2,1.5-1.4,2.8-1.4
		c0.5,0,1,0.2,1.3,0.5c1,1,1.3,3.5,1.4,3.8c0.5,3,0.6,3.2,1.2,4.1c0.7,0,1.3,0,1.6,0c0.4,0,0.9,0,1.3,0.1L179.1,47.9L179.1,47.9z
		 M144.3,39.7c0-0.5-0.1-1-0.1-1.5c0-0.8,0.1-4.3,0.1-5.1c0.8-0.2,1.6-0.3,2.4-0.3c3.5,0,3.7,2.7,3.7,3.2c0,0.8-0.3,2.3-2.3,3.2
		C147.1,39.6,145.7,39.6,144.3,39.7L144.3,39.7z M146.1,47.8c0.3,0,0.5,0,0.5-0.2c0-0.2-0.2-0.2-0.3-0.2c-0.7,0-1.6-0.1-1.9-1
		c-0.2-0.7-0.2-1.6-0.2-4.6c0-0.8,0.1-1.3,0.1-1.6c0.4,0,0.8-0.1,1.4-0.1c2.6,0,3.4,0.9,4,4c0.4,2.3,0.4,2.6,0.8,3.2
		c0.2,0.3,0.4,0.5,4.3,0.5c0.3,0,0.4-0.1,0.4-0.2c0-0.2,0-0.2-0.6-0.2c-1.9-0.2-2.4-2.1-2.6-3.6c-0.3-1.8-0.6-2.8-3.2-3.8
		c1.9-0.6,4.1-1.2,4.1-3.9c0-1.2-0.5-2-1.4-2.7c-1-0.8-2-1.1-4-1.1l-1.8,0c-1.8,0-2.2,0.1-5.2,0.1c-0.3,0-0.5,0-0.5,0.2
		c0,0.1,0,0.2,0.2,0.2c1.1,0.2,1.5,0.4,1.7,0.9c0.3,0.8,0.3,3.5,0.3,4.5v6c0,2.9-0.7,3.2-2,3.2c-0.1,0-0.4,0-0.4,0.2
		c0,0.2,0.2,0.2,0.5,0.2C140.3,47.8,146.1,47.8,146.1,47.8z M125.8,47.8c1.4,0,3.2,0,5,0.1s3.6,0.1,5.1,0c0.1-0.4,0.9-3.5,0.9-3.8
		c0-0.1,0-0.3-0.2-0.3c-0.2,0-0.3,0.3-0.3,0.4c-1.2,2.8-4.1,3.1-5.9,3.1c-0.6,0-2.2,0-2.8-0.8c-0.3-0.5-0.4-0.8-0.4-4.2
		c0-1.1,0-1.6,0-2.2c2.7,0,4,0.3,4.5,2.6c0,0.1,0.1,0.3,0.2,0.3c0.2,0,0.2-0.3,0.2-0.4c0-0.1,0-0.7-0.1-0.9c0-0.7,0-1.3,0-1.8l0-1.2
		c0-0.2,0.1-1.3,0.1-1.4c0-0.2,0-0.4-0.2-0.4c-0.1,0-0.2,0.2-0.2,0.3c-0.6,1.8-1.2,2.3-3.3,2.3c-0.3,0-1.1,0-1.2,0
		c-0.1-1,0.1-4,0.1-5.1c0-0.1,0.1-0.9,0.1-1.1c0.8-0.2,1.8-0.2,2.7-0.2c1.9,0,3.6-0.2,5.4,2.9c0.2,0.3,0.2,0.4,0.4,0.4
		c0.1,0,0.1,0,0.1-0.1c-0.3-2.1-0.5-3-0.7-3.7h-10c-0.2,0-0.6,0-1-0.1c-0.4,0-0.8-0.1-0.9-0.1c-0.1,0-0.4,0-0.4,0.2
		c0,0.2,0.2,0.2,0.3,0.3c0.8,0.2,1.4,0.4,1.7,1c0.2,0.4,0.3,4,0.2,4.7l0,2.2c-0.1,2.9,0,4.8-0.3,5.6c-0.3,0.7-1.2,0.8-1.8,0.8
		c-0.1,0-0.4,0-0.4,0.2c0,0.2,0.2,0.2,0.3,0.2L125.8,47.8L125.8,47.8z M107.8,43.8c0-2.2,0.2-6.4,0.3-8.5c0-0.3,0.1-1.7,0.1-1.8
		c0-0.4,0-0.5,2.1-0.5c1.7,0,3.2,0.3,4.5,1.4c1.6,1.5,2.6,3.7,2.5,5.9c0,2.2-1.1,7.2-6.3,7.2C107.8,47.5,107.8,45.9,107.8,43.8
		L107.8,43.8z M108.2,32.5c-1.4,0-1.6,0-3.4-0.2c-0.1,0-0.6,0-0.7,0c-0.2,0-0.2,0.1-0.2,0.2c0,0.1,0.1,0.2,0.2,0.2
		c0.8,0.1,0.9,0.1,1.3,0.4c0.5,0.5,0.6,2.6,0.6,3.4c0,1-0.2,8.3-0.4,9c-0.3,1.6-0.8,1.7-2.1,1.9c-0.4,0-0.5,0.1-0.5,0.3
		c0,0.2,0.2,0.2,0.3,0.2l0.7,0c0.6,0,3-0.1,3.7-0.1c0.3,0,1.1,0,1.9,0.1s1.6,0.1,1.9,0.1c2.7,0,4.2-0.7,5.1-1.3
		c2.1-1.5,3.3-3.9,3.2-6.4c0-2.8-1.5-8-9.3-7.9L108.2,32.5L108.2,32.5z M89.6,35.7c-1.8-2.1-1.9-2.2-2.7-3.2c-0.4,0-2.3,0-3.4,0
		c-0.2,0-0.5,0-0.5,0.2c0,0.1,0.3,0.2,0.4,0.2c0.5,0.1,0.9,0.3,1.2,0.6c0.9,0.8,1.4,2,1.4,3.2c0,2,0.1,5.2,0.1,7.2
		c0,2.1-0.1,3.5-2.4,3.5c-0.2,0-0.4,0-0.4,0.2c0,0.2,0.3,0.2,0.4,0.2c0.3,0,1.7-0.1,2.9-0.1c1.3,0,2.4,0.1,2.7,0.1
		c0.2,0,0.4,0,0.4-0.2c0-0.1-0.1-0.2-0.2-0.2l-1.2-0.3c-1.3-0.5-1.4-1.6-1.5-2.2c-0.2-1.5-0.4-3.2-0.4-8.6c0-0.3,0-0.5,0.2-0.5
		c0.1,0,0.2,0.1,0.4,0.4c0.3,0.5,1.4,1.7,2,2.3c0.5,0.5,1.5,1.7,2.2,2.6c0.8,0.9,4.5,5.2,5.3,6.2c0.1,0.1,0.3,0.3,0.4,0.3
		c0.2,0,0.2-0.3,0.2-0.4c0.1-3,0.1-6.1,0.1-9.1c0-4.2,0-5.2,2.4-5.4c0.1,0,0.3-0.1,0.3-0.2c0-0.2-0.3-0.2-0.4-0.2l-2.1,0.1
		c-0.7,0-3.4-0.1-3.6-0.1c-0.1,0-0.2,0.1-0.2,0.2c0,0.2,0.2,0.2,0.5,0.2c0.2,0,1.2,0.1,1.9,0.9c0.7,0.7,0.7,1.5,0.7,4.3
		c0,1.7,0,4.2-0.1,5.8c-0.1-0.1-0.4-0.5-0.6-0.7C96.1,43.3,89.6,35.7,89.6,35.7z M72.4,34.7c0.4,1,2.1,5.5,2.5,6.5l-3.2,0
		c-0.7,0-1.3,0-1.8,0C70.5,39,71.4,36.8,72.4,34.7L72.4,34.7z M72.8,32.1c-1,2.1-1.8,4.2-2.6,6.4c-0.8,2.2-1,2.6-2.3,6.3
		c-0.3,0.9-0.9,2.5-2.3,2.7c-0.2,0-0.3,0-0.3,0.2c0,0.2,0.2,0.2,0.3,0.2c0.2,0,0.8,0,1.3-0.1l1.4,0l1.1,0c0.5,0,1,0.1,1.2,0.1
		c0.1,0,0.1-0.1,0.1-0.2c0-0.2-0.3-0.3-0.4-0.3c-0.9-0.1-1.8-0.6-1.8-1.5c0-0.7,0.3-1.6,1.2-4.1c1.3,0,4.3-0.1,5.4,0
		c0.1,0.5,0.5,1.4,0.7,2c0.2,0.6,0.7,2,0.7,2.5c0,0.9-0.9,1.1-1.2,1.1c-0.7,0.1-0.8,0.1-0.8,0.2c0,0.2,0.2,0.2,0.3,0.2
		c0.3,0,1,0,1.7-0.1l1.7,0l1.4,0c0.6,0,1.2,0.1,1.5,0.1c0.1,0,0.2,0,0.2-0.2c0-0.2-0.1-0.2-0.4-0.2c-1.2-0.1-1.8-0.4-3.1-4.3
		c-1-2.8-3-8.4-4.3-11.1L72.8,32.1L72.8,32.1z M60,47.8c0.5,0,0.7,0,1.1,0l0.1-0.3c0.6-1.8,0.6-1.9,1.2-3.5v0c0-0.1,0-0.2-0.2-0.2
		c-0.1,0-0.1,0-0.2,0l-1.3,1.6c-1.6,2-4.5,2-6,2c-1.1,0-1.8,0-2.9,0c1.2-2.2,4.1-6.4,4.3-6.7c1.9-2.8,3.3-4.8,5.1-7.5
		c0.2-0.3,0.3-0.4,0.3-0.6c0-0.1-0.1-0.1-0.1-0.1c-0.1,0-0.4,0-0.4,0c-1.6,0.1-3,0.1-4.2,0.1c-1.1,0-3.4,0-4.4,0
		c-0.2,0-1.7-0.1-1.8-0.1c-0.1,0-0.3,0.6-0.4,0.8c-0.1,0.4-0.9,2.9-0.9,3c0,0.1,0.1,0.2,0.2,0.2c0.1,0,0.2-0.2,0.2-0.2
		c1.7-2.4,2.2-3.1,5.7-3.1c0.1,0,1.4,0,3.2,0.1c-0.2,0.5-0.3,0.6-0.6,1.1c-0.8,1.2-2.1,3-2.9,4.2c-0.8,1.2-6,8.9-6,9.2
		c0,0.2,0.2,0.2,0.6,0.2L60,47.8L60,47.8z"></path>
	<path d="M135.6,23.9c0.1-0.4,0.4-2.2,0.4-2.4c0-0.1,0-0.1-0.1-0.1c0,0-0.1,0-0.1,0.1c-0.1,0.3-0.4,0.7-0.5,0.8
		c-1,1.2-1.6,1.2-2.9,1.2c-0.3,0-0.9,0-1-0.8c0-0.4,0-1.8,0-2.3c0-0.5,0-3,0.1-3.4c0.1-0.7,1.1-0.7,1.1-0.7s0.2,0,0.2-0.1
		c0-0.1-0.1-0.1-0.2-0.1l-1,0c-0.1,0-1,0-1.4,0l-1,0c-0.1,0-0.2,0-0.2,0.1s0.1,0.1,0.1,0.1c1.2,0.1,1.2,1,1.2,2.3
		c0,3.7-0.1,3.9-0.1,4.2c-0.1,0.8-0.7,0.8-1.1,0.9c0,0-0.2,0-0.2,0.1c0,0.1,0.1,0.1,0.5,0.1l0.6,0l0.6,0h0.8c1.3,0,2.6,0,3.9,0.1
		L135.6,23.9L135.6,23.9z M122.2,23.8c0.7,0,1.6,0,2.5,0c0.9,0,1.8,0,2.6,0c0.1-0.2,0.4-1.8,0.4-1.9c0,0,0-0.1-0.1-0.1
		c-0.1,0-0.2,0.2-0.2,0.2c-0.6,1.4-2.1,1.5-2.9,1.5c-0.3,0-1.1,0-1.4-0.4c-0.2-0.2-0.2-0.4-0.2-2.1c0-0.5,0-0.8,0-1.1
		c1.3,0,2,0.1,2.2,1.3c0,0.1,0,0.1,0.1,0.1c0.1,0,0.1-0.1,0.1-0.2c0-0.1,0-0.4,0-0.4l0-0.9v-0.6c0-0.1,0.1-0.7,0.1-0.7
		c0-0.1,0-0.2-0.1-0.2s-0.1,0.1-0.1,0.1c-0.3,0.9-0.6,1.2-1.6,1.2l-0.6,0c0-0.5,0-2,0-2.6c0-0.1,0-0.5,0.1-0.5
		c0.4-0.1,0.9-0.1,1.4-0.1c1,0,1.8-0.1,2.7,1.4c0.1,0.1,0.1,0.2,0.2,0.2c0,0,0.1,0,0.1,0c-0.2-1.1-0.2-1.5-0.3-1.8h-5l-0.5,0
		c-0.2,0-0.3,0-0.5,0c0,0-0.2,0-0.2,0.1c0,0.1,0.1,0.1,0.2,0.1c0.4,0.1,0.7,0.2,0.8,0.5c0.1,0.2,0.1,2,0.1,2.4l0,1.1
		c0,1.5,0,2.4-0.2,2.8c-0.1,0.3-0.6,0.4-0.9,0.4c-0.1,0-0.2,0-0.2,0.1c0,0.1,0.1,0.1,0.2,0.1L122.2,23.8L122.2,23.8z M118.2,16.1
		c-0.2,0-0.3,0-0.7,0c-0.5,0-2.3,0-3,0c-1,0-1.1,0-2.4-0.1h-1c0,0.2-0.2,1.4-0.2,1.9c0,0,0.1,0,0.1,0c0,0,0.1,0,0.1,0
		c0,0,0.1-0.3,0.2-0.4c0.7-1.2,1.8-1.2,2.4-1.2c0.2,0,0.4,0,0.6,0c0.1,1.2,0.2,3.2,0.2,3.8c0,2.2-0.1,2.3-0.1,2.6
		c-0.1,0.5-0.6,0.7-1.1,0.7c-0.1,0-0.2,0-0.2,0.1c0,0.1,0.1,0.1,0.1,0.1h3.6c0.1,0,0.2,0,0.2-0.1c0-0.1-0.1-0.1-0.2-0.1
		c-1,0-1.1-0.5-1.2-0.8c-0.2-0.9-0.2-2.7-0.2-4.3c0-1.1,0-1.6,0.1-2c0.9,0,1.1,0,1.3,0c1,0.1,1.4,0.7,1.5,0.8
		c0.4,0.6,0.4,0.6,0.5,0.6c0.1,0,0.1,0,0.1-0.1l-0.2-1.7L118.2,16.1L118.2,16.1z M103.1,19.7c0-1.2,0.7-3.4,2.5-3.4
		c1.8,0,2.6,2,2.6,3.6c0,1.4-0.7,3.7-2.6,3.7c-0.7,0-1.4-0.4-1.7-0.9C103.3,21.9,103.1,20.3,103.1,19.7z M101.8,19.9
		c0,2.6,1.8,4,3.7,4c2.4,0,4-2.2,4-4.1c0-2.1-1.7-3.8-3.7-3.8c0,0,0,0,0,0C103.2,16,101.8,18.4,101.8,19.9L101.8,19.9z M98,19.8
		l-1.8,0.1c-1,0-1.6,0-2.1-0.1c0-1,0-1.7,0-2.8c0-0.4,0-0.6,0.8-0.6c0.1,0,0.2,0,0.2-0.1c0-0.1-0.1-0.1-0.2-0.1c-0.2,0-0.4,0-0.6,0
		c-0.2,0-0.5,0-0.7,0c-0.2,0-0.5,0-0.7,0l-0.5,0c-0.2,0-0.3,0-0.3,0.1c0,0.1,0,0.1,0.1,0.1c0.2,0,0.5,0.1,0.6,0.3
		c0.2,0.3,0.2,1.8,0.2,2.3c0,0.8-0.1,3.1-0.1,3.9c-0.1,0.5-0.1,0.8-0.8,0.9c-0.1,0-0.2,0-0.2,0.1c0,0.1,0.1,0.1,0.2,0.1l0.3,0
		c0.9-0.1,1.7-0.1,2.6,0c0.1,0,0.1,0,0.1-0.1c0-0.1-0.1-0.1-0.1-0.1c-0.1,0-0.2-0.1-0.3-0.1c-0.6-0.2-0.6-0.4-0.6-1.5
		c0-0.5,0-1.4,0-1.9c0.6-0.1,2.2-0.1,2.9-0.1c0.5,0,0.8,0,1,0c0,2.2,0,2.5-0.1,2.9c-0.1,0.6-0.4,0.6-0.9,0.6c-0.1,0-0.1,0-0.1,0.1
		c0,0.1,0.2,0.1,0.2,0.1l0.6,0l0.6,0l0.9,0c0.4,0,0.8,0,0.9,0c0,0,0.2,0,0.2-0.1c0-0.1-0.1-0.1-0.2-0.1c-1-0.1-1-0.7-1-1.4
		c0-0.9,0.1-4.6,0.2-5.4c0.1-0.4,0.3-0.6,1-0.6c0.1,0,0.1-0.1,0.1-0.1c0-0.1-0.1-0.1-0.2-0.1c-0.1,0-0.4,0-0.7,0c-0.3,0-0.7,0-0.8,0
		l-0.8,0l-0.8,0c-0.1,0-0.2,0-0.2,0.1c0,0.1,0.1,0.1,0.3,0.1c0.8,0,0.9,0.6,0.9,1.8v0.2C98.1,18.4,98.1,19.8,98,19.8z"></path>
</g>
</svg>